<?xml version="1.0" standalone="no"?>
<!DOCTYPE svg PUBLIC "-//W3C//DTD SVG 20010904//EN"
 "http://www.w3.org/TR/2001/REC-SVG-20010904/DTD/svg10.dtd">
<svg version="1.0" xmlns="http://www.w3.org/2000/svg"
 width="252.000000pt" height="252.000000pt" viewBox="0 0 252.000000 252.000000"
 preserveAspectRatio="xMidYMid meet">
<metadata>
Created by potrace 1.14, written by Peter Selinger 2001-2017
</metadata>
<g transform="translate(0.000000,252.000000) scale(0.100000,-0.100000)"
fill="#000000" stroke="none">
<path d="M564 1949 c-176 -28 -361 -144 -461 -289 -42 -62 -85 -150 -80 -164
3 -7 43 -11 126 -10 l121 1 29 39 c38 53 98 106 153 137 150 84 348 74 494
-24 53 -36 131 -123 149 -165 9 -23 28 -40 62 -57 47 -24 157 -102 197 -138
27 -26 36 -24 36 9 0 81 51 199 118 273 160 178 405 212 607 84 45 -28 76 -58
140 -136 20 -23 25 -24 138 -23 64 0 120 4 123 7 18 18 -76 175 -152 252 -138
142 -321 215 -520 209 -112 -3 -148 -10 -244 -46 -106 -41 -241 -143 -307
-233 l-22 -30 -33 40 c-104 126 -247 219 -393 255 -62 15 -213 20 -281 9z"/>
<path d="M449 1385 c-1 0 -3 -53 -4 -117 l-2 -118 216 -1 c234 -1 253 -2 322
-25 102 -33 180 -105 291 -269 92 -135 230 -235 396 -285 65 -20 89 -22 215
-18 124 4 151 8 217 33 124 46 238 129 322 235 37 47 98 160 98 183 0 10 -28
12 -126 11 -112 -1 -128 -4 -137 -20 -23 -41 -104 -117 -160 -150 -234 -137
-531 -49 -658 196 -61 116 -206 241 -338 290 -126 48 -165 53 -413 54 -131 1
-239 2 -239 1z"/>
<path d="M20 1012 c-24 -8 88 -192 161 -263 89 -87 183 -141 307 -179 65 -20
89 -22 215 -18 175 6 242 26 367 109 85 56 153 125 145 148 -3 11 -37 51 -75
91 l-70 72 -65 -59 c-110 -102 -197 -134 -345 -129 -102 3 -166 23 -245 77
-42 28 -114 101 -132 134 -10 17 -24 19 -132 20 -67 0 -125 -1 -131 -3z"/>
</g>
</svg>
