<svg width="68" height="93" viewBox="0 0 68 93" fill="none" xmlns="http://www.w3.org/2000/svg">
<path d="M56 21.766H12V7.91489H26C26 3.54191 29.58 0 34 0C38.42 0 42 3.54191 42 7.91489H56V21.766ZM16 17.8085H52V11.8723H36.8L37.74 9.24064C37.92 8.76575 38 8.33043 38 7.91489C38 5.7383 36.2 3.95745 34 3.95745C31.8 3.95745 30 5.7383 30 7.91489C30 8.33043 30.08 8.76575 30.26 9.24064L31.2 11.8723H16V17.8085Z" fill="#001E46"/>
<path d="M68 93H0V11.8723H14V15.8298H4V89.0425H64V15.8298H54V11.8723H68V93Z" fill="#001E46"/>
<path d="M30 51.4469H10V31.6597H22V35.6171H14V47.4895H26V45.5107H30V51.4469Z" fill="#001E46"/>
<path d="M22 46.322L16.58 40.9795L19.42 38.1697L22 40.742L31.58 31.2441L34.42 34.0539L22 46.322Z" fill="#001E46"/>
<path d="M30 79.149H10V59.3618H22V63.3193H14V75.1916H26V73.2129H30V79.149Z" fill="#001E46"/>
<path d="M22 74.0242L16.58 68.6816L19.42 65.8718L22 68.4442L31.58 58.9463L34.42 61.7561L22 74.0242Z" fill="#001E46"/>
<path d="M58 35.6169H38V39.5744H58V35.6169Z" fill="#001E46"/>
<path d="M50 43.532H38V47.4894H50V43.532Z" fill="#001E46"/>
<path d="M58 63.3191H38V67.2765H58V63.3191Z" fill="#001E46"/>
<path d="M50 71.2341H38V75.1916H50V71.2341Z" fill="#001E46"/>
</svg>
