<svg width="85" height="89" viewBox="0 0 85 89" fill="none" xmlns="http://www.w3.org/2000/svg">
<path d="M41.6689 71.8628C36.4744 71.8628 32.2622 67.6589 32.2622 62.4894C32.2622 57.3198 36.4744 53.116 41.6689 53.116C46.8633 53.116 51.0756 57.3198 51.0756 62.4894C51.0756 67.6589 46.8633 71.8628 41.6689 71.8628ZM41.6689 56.9032C38.5711 56.9032 36.04 59.4217 36.04 62.4894C36.04 65.557 38.5711 68.0755 41.6689 68.0755C44.7667 68.0755 47.2978 65.557 47.2978 62.4894C47.2978 59.4217 44.7856 56.9032 41.6689 56.9032Z" fill="#001E46"/>
<path d="M56.6667 89H52.8889V83.6979C52.8889 80.4977 46.0133 78.0739 41.5556 78.0739C37.0978 78.0739 30.2222 80.4788 30.2222 83.6979V89H26.4444V83.6979C26.4444 77.127 36.4556 74.2866 41.5556 74.2866C46.6556 74.2866 56.6667 77.127 56.6667 83.6979V89Z" fill="#001E46"/>
<path d="M64.3356 71.8628C59.1411 71.8628 54.9289 67.6589 54.9289 62.4894C54.9289 57.3198 59.1411 53.116 64.3356 53.116C69.53 53.116 73.7422 57.3198 73.7422 62.4894C73.7422 67.6589 69.53 71.8628 64.3356 71.8628ZM64.3356 56.9032C61.2378 56.9032 58.7067 59.4217 58.7067 62.4894C58.7067 65.557 61.2378 68.0755 64.3356 68.0755C67.4333 68.0755 69.9645 65.557 69.9645 62.4894C69.9645 59.4217 67.4522 56.9032 64.3356 56.9032Z" fill="#001E46"/>
<path d="M79.3333 89H75.5556V83.6979C75.5556 80.4977 68.68 78.0739 64.2222 78.0739C62.7111 78.0739 60.8411 78.3768 59.0844 78.8881L58.0267 75.2524C60.1233 74.6275 62.3711 74.2866 64.2222 74.2866C69.3222 74.2866 79.3333 77.127 79.3333 83.6979V89Z" fill="#001E46"/>
<path d="M18.9267 71.8628C13.7322 71.8628 9.52 67.6589 9.52 62.4894C9.52 57.3198 13.7511 53.116 18.9267 53.116C24.1022 53.116 28.3333 57.3198 28.3333 62.4894C28.3333 67.6589 24.1211 71.8628 18.9267 71.8628ZM18.9267 56.9032C15.8289 56.9032 13.2978 59.4217 13.2978 62.4894C13.2978 65.557 15.8289 68.0755 18.9267 68.0755C22.0244 68.0755 24.5556 65.557 24.5556 62.4894C24.5556 59.4217 22.0244 56.9032 18.9267 56.9032Z" fill="#001E46"/>
<path d="M7.55556 89H3.77778V83.6979C3.77778 77.127 13.8456 74.2866 18.9644 74.2866C20.8156 74.2866 23.0067 74.6275 25.1222 75.2524L24.0644 78.8881C22.3078 78.3768 20.4567 78.0739 18.9644 78.0739C14.4878 78.0928 7.55556 80.4977 7.55556 83.6979V89Z" fill="#001E46"/>
<path d="M41.5556 50.8247C39.8933 50.8247 38.4956 49.8021 37.9667 48.2304L34.5289 37.8723H27.3889L20.0222 47.7192C19.04 49.0447 17.3589 49.556 15.81 49.0447C14.2422 48.5145 13.2222 47.1132 13.2222 45.4468V37.8723H9.44444C4.23111 37.8723 0 33.6306 0 28.4043V9.46809C0 4.2417 4.23111 0 9.44444 0H75.5556C80.7689 0 85 4.2417 85 9.46809V28.4043C85 33.6306 80.7689 37.8723 75.5556 37.8723H69.8889V45.4468C69.8889 47.1132 68.8689 48.5145 67.3011 49.0447C65.7333 49.5749 64.0711 49.0447 63.0889 47.7192L55.7222 37.8723H48.5822L45.1444 48.2304C44.6156 49.8021 43.2178 50.8247 41.5556 50.8247ZM25.5 34.0851H37.2489L41.5556 47.0374L45.8622 34.0851H57.6111L66.1111 45.4468V34.0851H75.5556C78.6722 34.0851 81.2222 31.5287 81.2222 28.4043V9.46809C81.2222 6.34362 78.6722 3.78723 75.5556 3.78723H9.44444C6.32778 3.78723 3.77778 6.34362 3.77778 9.46809V28.4043C3.77778 31.5287 6.32778 34.0851 9.44444 34.0851H17V45.4468L25.5 34.0851Z" fill="#001E46"/>
</svg>
