<svg width="58" height="94" viewBox="0 0 58 94" fill="none" xmlns="http://www.w3.org/2000/svg">
<path d="M27.0588 94.0001H23.1932V90.1813L23.9978 89.5963C25.271 88.6612 28.5808 85.5768 28.5615 82.5952V80.2917H32.427V82.5781C32.4585 87.0137 28.7451 90.6905 27.0588 92.1299V94.0001Z" fill="#001E46"/>
<path d="M15.1771 89.7504L15.1505 85.8338C15.1312 85.8338 15.1095 85.8338 15.0829 85.8362C15.1336 85.8313 20.183 84.7126 20.1443 79.2489L20.1153 75.0335L24.0123 71.0288C25.2227 69.7852 25.1888 68.0178 24.754 66.7792C24.3626 65.6629 23.7417 65.1587 23.5436 65.1317C23.546 65.1366 23.4711 65.1684 23.3479 65.2957L10.0094 79.0041L7.25275 76.2526L20.5913 62.5443C21.693 61.4109 23.128 60.9727 24.522 61.3423C26.3654 61.8295 27.9213 63.6434 28.5833 66.0791C29.3588 68.9309 28.6775 71.8096 26.7616 73.7778L23.9905 76.6296L24.0074 79.2219C24.063 87.07 17.0616 89.7357 15.1771 89.7504Z" fill="#001E46"/>
<path d="M3.86556 94H2.21876e-05V74.4167C-0.0289694 70.3678 1.87239 68.0717 3.82449 66.0693L3.8559 66.0375L10.2534 59.7512L12.9447 62.5639L6.56177 68.8354C4.97207 70.4707 3.84865 71.8317 3.86556 74.4045V94Z" fill="#001E46"/>
<path d="M29.4361 13.7083H25.5706V11.422C25.5392 6.98635 29.2525 3.30958 30.9388 1.87021V0H34.8044V3.81875L33.9999 4.40625C32.7267 5.34135 29.4168 8.42573 29.4385 11.4073L29.4361 13.7083Z" fill="#001E46"/>
<path d="M34.4492 32.7824C34.1255 32.7824 33.7993 32.7408 33.4756 32.6551C31.6322 32.168 30.0763 30.3541 29.4144 27.9184C28.6388 25.0666 29.3201 22.1878 31.236 20.2197L34.0095 17.3703L33.9926 14.778C33.9395 6.92998 40.9385 4.26175 42.8254 4.24951L42.8519 8.16618C42.8713 8.16618 42.893 8.16618 42.9196 8.16373C42.8688 8.16863 37.8195 9.28732 37.8581 14.7511L37.8871 18.9664L33.9902 22.9712C32.7798 24.2147 32.8136 25.9821 33.2485 27.2208C33.6399 28.337 34.2608 28.8413 34.4589 28.8682C34.4565 28.8633 34.5314 28.8315 34.6546 28.7042L47.9931 14.9959L50.7449 17.7449L37.4064 31.4532C36.5608 32.3222 35.5195 32.7824 34.4492 32.7824Z" fill="#001E46"/>
<path d="M47.7491 34.2488L45.0577 31.4361L51.4382 25.1646C53.0279 23.5294 54.1514 22.1683 54.1344 19.5956V0H58V19.5833C58.029 23.6322 56.1276 25.9283 54.1755 27.9307L54.1441 27.9626L47.7491 34.2488Z" fill="#001E46"/>
<path d="M13.5294 47H9.66388V74.5782H13.5294V47Z" fill="#001E46"/>
<path d="M46.3865 82.2501H22.0287V78.3334H44.4537V70.7718C44.4537 69.4768 45.0843 68.2676 46.14 67.5381C47.1934 66.8086 48.5343 66.6544 49.7229 67.1269C50.6217 67.4842 51.0686 67.521 51.2184 67.521C52.8178 67.521 54.1176 66.204 54.1176 64.5835C54.1176 62.9629 52.8178 61.646 51.2184 61.646C51.0614 61.646 50.6096 61.6827 49.7664 62.0278C48.5681 62.515 47.2176 62.3706 46.1521 61.6386C45.0915 60.9116 44.4561 59.6999 44.4561 58.4V47.0001H46.3889V45.0417C46.9011 45.0417 47.3939 45.2474 47.7563 45.6146C48.1187 45.9817 48.3217 46.4811 48.3217 47.0001V58.4C49.4233 57.9472 50.3704 57.7293 51.2184 57.7293H51.2208C54.9486 57.7293 57.9831 60.8039 57.9831 64.5835C57.9831 68.363 54.9486 71.4376 51.2184 71.4376C50.3921 71.4376 49.4403 71.2198 48.312 70.7718L48.3192 80.2917C48.3192 81.3737 47.4543 82.2501 46.3865 82.2501Z" fill="#001E46"/>
<path d="M46.3865 48.9583H35.1136C33.8356 48.9583 32.6445 48.3219 31.927 47.2546C31.2046 46.1824 31.0548 44.8189 31.5235 43.6072C31.8424 42.7798 31.8907 42.3122 31.8907 42.1066C31.8907 40.4861 30.5909 39.1691 28.9916 39.1691C27.3922 39.1691 26.0924 40.4861 26.0924 42.1066C26.0924 42.2633 26.1287 42.7259 26.4717 43.6023C26.9452 44.8116 26.7955 46.1751 26.0755 47.2497C25.358 48.3219 24.1621 48.9608 22.884 48.9608H11.5966C10.5312 48.9608 9.66629 48.0844 9.66387 47.0049C9.66387 47.0049 9.66387 47.0049 9.66387 47.0024C9.66387 47.0024 9.66387 47.0024 9.66387 47V35.6C8.5622 36.0529 7.61514 36.2708 6.76714 36.2708H6.76472C3.03689 36.2708 0.00244141 33.1962 0.00244141 29.4166C0.00244141 25.637 3.03689 22.5624 6.76714 22.5624C7.59339 22.5624 8.54528 22.7803 9.67354 23.2283L9.66387 13.7083C9.66387 12.6264 10.5288 11.75 11.5966 11.75H35.9713V15.6667H13.5294V23.2283C13.5294 24.5232 12.8988 25.7325 11.8431 26.462C10.7873 27.1915 9.44885 27.3432 8.2602 26.8732C7.36146 26.5158 6.91451 26.4791 6.76472 26.4791C5.16535 26.4791 3.86556 27.7961 3.86556 29.4166C3.86556 31.0371 5.16535 32.3541 6.76472 32.3541C6.92176 32.3541 7.37354 32.3174 8.21671 31.9722C9.41503 31.4851 10.7656 31.6295 11.8334 32.3615C12.894 33.0885 13.5294 34.3002 13.5294 35.6V45.0417H22.884C22.4395 43.9205 22.2269 42.9585 22.2269 42.1042C22.2269 38.3246 25.2613 35.25 28.9916 35.25C32.7218 35.25 35.7563 38.3246 35.7563 42.1042C35.7563 42.9732 35.5485 43.9303 35.1233 45.0343L44.4561 45.0392V19.4193H48.3217L48.3193 47C48.3193 47.519 48.1163 48.0183 47.7539 48.3855C47.3915 48.7527 46.9011 48.9583 46.3865 48.9583Z" fill="#001E46"/>
</svg>
