<svg width="80" height="72" viewBox="0 0 80 72" fill="none" xmlns="http://www.w3.org/2000/svg">
<path d="M78.3333 58.6047H31.6667C30.7458 58.6047 30 57.8554 30 56.9302V36.8372H33.3333V55.2558H76.6667V3.34884H33.3333V18.4186H30V1.67442C30 0.749302 30.7458 0 31.6667 0H78.3333C79.2542 0 80 0.749302 80 1.67442V56.9302C80 57.8554 79.2542 58.6047 78.3333 58.6047Z" fill="#001E46"/>
<path d="M16.6666 20.093C11.9937 20.093 8.33331 16.2063 8.33331 11.2437V8.8493C8.33331 3.88674 11.9937 0 16.6666 0C21.3396 0 25 3.88674 25 8.8493V11.2416C25 16.2063 21.3396 20.093 16.6666 20.093ZM16.6666 3.34884C13.8625 3.34884 11.6666 5.76419 11.6666 8.8493V11.2416C11.6666 14.3288 13.8625 16.7442 16.6666 16.7442C19.4708 16.7442 21.6666 14.3288 21.6666 11.2437V8.8493C21.6666 5.76419 19.4708 3.34884 16.6666 3.34884Z" fill="#001E46"/>
<path d="M26.6667 72H23.3333V34.7965C23.3333 33.2937 24.2833 31.9646 25.6958 31.4874C28.4292 30.5623 33.2062 28.9507 34.5 28.5426C35.1417 28.3395 35.7062 28.0905 36.1771 27.8016C37.0229 27.2805 36.8646 26.437 36.7958 26.1921C36.725 25.9409 36.4146 25.1184 35.3958 25.1184H11.6667C5.825 25.1184 3.33333 27.6216 3.33333 33.4905V45.2114C3.33333 47.9805 5.57708 50.2346 8.33333 50.2346V53.5835C3.7375 53.5835 0 49.8286 0 45.2114V33.4905C0 25.8216 4.03333 21.7695 11.6667 21.7695H35.3958C37.5625 21.7695 39.4146 23.1823 40.0042 25.2837C40.5896 27.3705 39.7521 29.5305 37.9187 30.6586C37.2146 31.0919 36.4 31.456 35.4979 31.7407C34.1854 32.1551 28.9479 33.9216 26.7583 34.6626C26.7 34.6814 26.6646 34.7337 26.6646 34.7986V72H26.6667Z" fill="#001E46"/>
<path d="M18.3333 46.8838H15V72.0001H18.3333V46.8838Z" fill="#001E46"/>
<path d="M10 33.4883H6.66669V71.9999H10V33.4883Z" fill="#001E46"/>
<path d="M55 48.5581C52.2437 48.5581 50 46.3039 50 43.5349C50 42.9404 50.1042 42.2916 50.1937 41.8542L43.3333 41.8604C42.4125 41.8604 41.6667 41.1111 41.6667 40.186V33.2895C41.6667 32.2828 42.1125 31.3367 42.8896 30.6983C43.6667 30.06 44.675 29.8088 45.6562 30.0097C46.05 30.0893 46.4271 30.1374 46.6667 30.1374C47.5854 30.1374 48.3333 29.386 48.3333 28.463C48.3333 27.54 47.5854 26.7886 46.6667 26.7886C46.4271 26.7886 46.0479 26.8367 45.6542 26.9163C44.6729 27.1151 43.6646 26.8639 42.8896 26.2277C42.1125 25.5893 41.6667 24.6453 41.6667 23.6365V16.7442C41.6667 15.819 42.4125 15.0697 43.3333 15.0697H50.1958C50.1042 14.6386 50 13.9918 50 13.3953C50 10.6263 52.2437 8.37207 55 8.37207C57.7562 8.37207 60 10.6263 60 13.3953C60 13.9897 59.8958 14.6386 59.8062 15.076L66.6667 15.0697C67.5875 15.0697 68.3333 15.819 68.3333 16.7442V23.6386C68.3333 24.6453 67.8875 25.5914 67.1104 26.2297C66.3333 26.8681 65.325 27.1193 64.3437 26.9183C63.95 26.8388 63.5729 26.7907 63.3333 26.7907C62.4146 26.7907 61.6667 27.5421 61.6667 28.4651C61.6667 29.3881 62.4146 30.1395 63.3333 30.1395C63.5729 30.1395 63.9521 30.0914 64.3458 30.0118C65.325 29.8109 66.3354 30.0642 67.1104 30.7004C67.8875 31.3388 68.3333 32.2828 68.3333 33.2916V40.186C68.3333 41.1111 67.5875 41.8604 66.6667 41.8604H59.8042C59.8958 42.2916 60 42.9383 60 43.5349C60 46.3039 57.7562 48.5581 55 48.5581ZM44.9979 38.5116H50.1958C51.1979 38.5116 52.1396 38.9595 52.775 39.7402C53.4104 40.5209 53.6604 41.5318 53.4604 42.5177C53.3812 42.9132 53.3333 43.2921 53.3333 43.5328C53.3333 44.4558 54.0812 45.2072 55 45.2072C55.9187 45.2072 56.6667 44.4558 56.6667 43.5328C56.6667 43.2921 56.6187 42.9111 56.5396 42.5156C56.3417 41.5297 56.5917 40.5188 57.225 39.7381C57.8604 38.9574 58.8 38.5095 59.8042 38.5095H65V33.2874C64.5708 33.3795 63.925 33.4842 63.3333 33.4842C60.5771 33.4842 58.3333 31.23 58.3333 28.4609C58.3333 25.6918 60.5771 23.4377 63.3333 23.4377C63.925 23.4377 64.5708 23.5423 65.0062 23.6323L65.0021 18.4186H59.8042C58.8021 18.4186 57.8604 17.9707 57.225 17.19C56.5896 16.4093 56.3396 15.3983 56.5396 14.4125C56.6187 14.017 56.6667 13.6381 56.6667 13.3974C56.6667 12.4744 55.9187 11.723 55 11.723C54.0812 11.723 53.3333 12.4744 53.3333 13.3974C53.3333 13.6381 53.3812 14.019 53.4604 14.4146C53.6583 15.4004 53.4083 16.4114 52.775 17.1921C52.1396 17.9728 51.2 18.4207 50.1958 18.4207H45V23.6407C45.4292 23.5486 46.075 23.4439 46.6667 23.4439C49.4229 23.4439 51.6667 25.6981 51.6667 28.4672C51.6667 31.2363 49.4229 33.4904 46.6667 33.4904C46.075 33.4904 45.4292 33.3858 44.9937 33.2958L44.9979 38.5116Z" fill="#001E46"/>
</svg>
