<svg width="90" height="93" viewBox="0 0 90 93" fill="none" xmlns="http://www.w3.org/2000/svg">
<path d="M74.2467 48.5303C73.0656 48.5303 71.8992 48.2217 70.8496 47.6165C69.2716 46.7075 68.1441 45.2396 67.6717 43.4848C67.4525 42.6657 67.4111 41.6887 67.5499 40.4978L56.5647 43.4338H56.5623C55.5761 43.6962 54.5533 43.1543 54.2197 42.1894C54.1953 42.1165 54.1734 42.046 54.1588 41.9731L51.2463 31.1237C50.9102 29.8769 51.2171 28.5499 52.0621 27.5753C52.9119 26.5982 54.1904 26.1049 55.4811 26.2604C56.3943 26.3698 56.8424 26.2871 56.9933 26.2483C57.7483 26.0465 58.379 25.5629 58.7686 24.8897C59.1582 24.2164 59.2629 23.429 59.0608 22.6755C58.8587 21.9221 58.3765 21.2951 57.6995 20.9038C57.0226 20.5149 56.236 20.4104 55.4811 20.6121C55.335 20.651 54.9088 20.8041 54.1271 21.3801C53.0897 22.1433 51.7479 22.345 50.5328 21.9197C49.3176 21.4944 48.3922 20.5003 48.0586 19.2559L45.6064 10.1249C45.4724 9.62662 45.543 9.09679 45.8012 8.64959C46.0593 8.2024 46.4855 7.87672 46.9847 7.74305L75.2111 0.201456C76.7184 -0.201994 78.294 0.00459162 79.6455 0.784756C80.9971 1.56492 81.9638 2.82145 82.3681 4.32588L89.9172 32.4458C90.1607 33.26 89.8441 34.1107 89.1866 34.5797C88.9991 34.7134 88.7873 34.8155 88.5559 34.8787L79.4629 37.3115C80.1618 38.2497 80.6245 39.1392 80.8437 39.9607C81.3161 41.7155 81.0726 43.5504 80.1618 45.1253C79.251 46.7002 77.7802 47.8255 76.022 48.297C75.4351 48.4526 74.8385 48.5303 74.2467 48.5303ZM67.5548 36.6043C68.4777 36.6043 69.3788 36.9324 70.0947 37.5473C71.0736 38.3906 71.568 39.6593 71.4194 40.9426C71.3123 41.8734 71.3951 42.3255 71.4341 42.4762C71.6362 43.2296 72.1183 43.8566 72.7953 44.2479C73.4723 44.6368 74.2589 44.7413 75.0138 44.5396C76.5699 44.124 77.4977 42.5199 77.0813 40.9669C77.0277 40.77 76.8621 40.3325 76.3361 39.6229C75.5666 38.5826 75.362 37.2338 75.7906 36.0185C76.2144 34.8082 77.2103 33.8871 78.4547 33.5541L85.6653 31.6243L78.6057 5.33207C78.4718 4.8314 78.1479 4.41094 77.6974 4.15089C77.2469 3.89083 76.7209 3.82278 76.2192 3.95645L49.8753 11.0022L51.8234 18.2546C52.7999 17.5303 53.6693 17.0759 54.4753 16.8596C56.2336 16.3881 58.0721 16.6311 59.6501 17.5401C61.2281 18.449 62.3556 19.917 62.8281 21.6718C63.3005 23.4265 63.057 25.2615 62.1462 26.8364C61.2355 28.4113 59.7646 29.5366 58.0064 30.0081C57.1809 30.2293 56.2043 30.2682 55.0184 30.1248L57.4439 39.1732L66.5491 36.7379C66.8778 36.648 67.2187 36.6043 67.5548 36.6043Z" fill="#001E46"/>
<path d="M64.2892 92.9995H35.0668V89.1108H64.2892C65.3631 89.1108 66.2374 88.2383 66.2374 87.1665V59.9458H58.771C59.2021 61.0322 59.4188 62.0117 59.4188 62.8623C59.4188 66.6149 56.3602 69.6675 52.6003 69.6675C48.8403 69.6675 45.7817 66.6149 45.7817 62.8623C45.7817 62.0141 45.996 61.0589 46.4368 59.9458H35.0644V56.0571H46.4416C47.7323 56.0571 48.9353 56.6915 49.6585 57.756C50.3842 58.8229 50.5352 60.1767 50.0579 61.3773C49.7121 62.2474 49.6756 62.7068 49.6756 62.8623C49.6756 64.4712 50.9857 65.7788 52.5978 65.7788C54.2099 65.7788 55.5201 64.4712 55.5201 62.8623C55.5201 62.6581 55.4713 62.1915 55.1499 61.3725C54.6775 60.1694 54.8285 58.8132 55.5566 57.7487C56.2798 56.689 57.4804 56.0571 58.7686 56.0571H68.1855C69.2619 56.0571 70.1337 56.9272 70.1337 58.0015C70.1337 58.0185 70.1337 58.0379 70.1337 58.0549V87.1665C70.1337 90.3844 67.511 92.9995 64.2892 92.9995Z" fill="#001E46"/>
<path d="M35.0668 59.9458H23.7042C22.416 59.9458 21.2154 59.3139 20.4922 58.2542C19.7641 57.1897 19.6131 55.836 20.0855 54.6329C20.4069 53.8114 20.4557 53.3472 20.4557 53.1431C20.4557 51.5341 19.1455 50.2266 17.5334 50.2266C15.9213 50.2266 14.6112 51.5341 14.6112 53.1431C14.6112 53.2986 14.6477 53.758 14.9935 54.628C15.4708 55.8287 15.3198 57.1824 14.5941 58.2494C13.8684 59.3139 12.6655 59.9482 11.3772 59.9482H2.05531C0.635586 59.9482 0.0511391 58.857 0.00487039 58.1254C0.0024352 58.0841 0 58.0452 0 58.0039V28.8389C0 25.6234 2.62271 23.0059 5.84447 23.0059H35.0668C36.1432 23.0059 37.015 23.8759 37.015 24.9502V34.4021C38.1449 33.9549 39.1044 33.7386 39.9372 33.7386C43.6972 33.7386 46.7558 36.7912 46.7558 40.5438C46.7558 44.2963 43.6972 47.3489 39.9372 47.3489H39.9348C39.08 47.3489 38.1279 47.1326 37.0223 46.6903L37.015 58.0015C37.015 58.1206 37.0052 58.2372 36.9833 58.3514C36.9298 58.6528 36.8056 58.9275 36.6302 59.1632C36.5474 59.275 36.45 59.3795 36.3429 59.4719C36.3185 59.4937 36.2942 59.5132 36.2674 59.5326C35.9386 59.7927 35.5198 59.9458 35.0668 59.9458ZM3.89631 56.0571C6.65539 56.0571 11.3772 56.0571 11.3772 56.0571C10.9292 54.944 10.7149 53.9888 10.7149 53.1406C10.7149 49.3881 13.7735 46.3355 17.5334 46.3355C21.2934 46.3355 24.352 49.3881 24.352 53.1406C24.352 53.9913 24.1377 54.9707 23.7139 56.0498L33.1211 56.0547V46.6806C33.1211 45.39 33.7591 44.187 34.8306 43.4651C35.9045 42.7409 37.2683 42.595 38.4761 43.0787C39.3284 43.419 39.7838 43.4578 39.9397 43.4578C41.5518 43.4578 42.8643 42.1503 42.8643 40.5413C42.8643 38.9324 41.5542 37.6248 39.9421 37.6248C39.7911 37.6248 39.3406 37.6637 38.4347 38.0161C37.2366 38.4852 35.8851 38.3321 34.8233 37.6078C33.7591 36.8836 33.1235 35.6829 33.1235 34.3972V26.8897H5.84447C4.77055 26.8897 3.89631 27.7622 3.89631 28.834V56.0571Z" fill="#001E46"/>
<path d="M35.0668 92.9995H5.84447C2.62271 92.9995 0 90.3819 0 87.1665V58.0015H3.89631V87.1665C3.89631 88.2383 4.77055 89.1108 5.84447 89.1108H33.1187V81.681C32.0082 82.1307 31.0536 82.347 30.1989 82.347C30.1964 82.347 30.1964 82.347 30.194 82.347C26.4365 82.347 23.3779 79.2944 23.3779 75.5418C23.3779 71.7892 26.4365 68.7366 30.1964 68.7366C31.0317 68.7366 31.9887 68.9529 33.126 69.3977L33.1187 58.0015H37.015V69.3977C37.015 70.6834 36.3794 71.884 35.3177 72.6083C34.2535 73.3326 32.9044 73.4832 31.7063 73.0166C30.8004 72.6618 30.3499 72.6229 30.1964 72.6229C28.5868 72.6229 27.2742 73.9304 27.2742 75.5394C27.2742 77.1483 28.5843 78.4559 30.1964 78.4559C30.3547 78.4559 30.8101 78.4194 31.66 78.0767C32.8679 77.5931 34.2291 77.7365 35.303 78.4632C36.3721 79.185 37.0126 80.3881 37.0126 81.6786V91.0527C37.015 92.1294 36.1408 92.9995 35.0668 92.9995Z" fill="#001E46"/>
</svg>
