<svg width="83" height="99" viewBox="0 0 83 99" fill="none" xmlns="http://www.w3.org/2000/svg">
<path d="M22.8279 81.0709H2.07526C0.928679 81.0709 0 80.1406 0 78.9921V61.2968C0 57.3005 3.24778 54.0472 7.23747 54.0472C9.43465 54.0472 10.6435 54.8502 11.5255 55.4374C12.2155 55.8973 12.5631 56.126 13.4892 56.126C16.3505 56.126 18.6773 53.3275 18.6773 49.8898C18.6773 46.452 16.3505 43.6535 13.4892 43.6535C12.5631 43.6535 12.2155 43.8848 11.5255 44.3421C10.6435 44.9294 9.43724 45.7323 7.23747 45.7323C3.24778 45.7323 0 42.4791 0 38.4827V20.7874C0 19.6389 0.928679 18.7087 2.07526 18.7087H19.7409C21.4426 18.7087 22.8279 17.3211 22.8279 15.6165C22.8279 14.6681 22.5814 14.2965 22.1326 13.6209C21.5516 12.7427 20.7526 11.537 20.7526 9.35433C20.7526 4.19646 25.4064 0 31.1289 0C36.8514 0 41.5052 4.19646 41.5052 9.35433C41.5052 11.537 40.7062 12.7427 40.1251 13.6209C39.6764 14.2965 39.4299 14.6681 39.4299 15.6165C39.4299 17.3211 40.8152 18.7087 42.5169 18.7087H60.1825C61.3291 18.7087 62.2578 19.6389 62.2578 20.7874V31.1811C62.2578 32.3296 61.3291 33.2598 60.1825 33.2598C59.0359 33.2598 58.1073 32.3296 58.1073 31.1811V22.8661H42.5169C38.5272 22.8661 35.2794 19.6129 35.2794 15.6165C35.2794 13.4157 36.081 12.2048 36.6672 11.3213C37.1264 10.6302 37.3547 10.2846 37.3547 9.35433C37.3547 6.48827 34.5609 4.15748 31.1289 4.15748C27.6969 4.15748 24.9031 6.48827 24.9031 9.35433C24.9031 10.282 25.134 10.6302 25.5905 11.3213C26.1768 12.2048 26.9784 13.4131 26.9784 15.6165C26.9784 19.6129 23.7306 22.8661 19.7409 22.8661H4.15052V38.4827C4.15052 40.1872 5.53575 41.5748 7.23747 41.5748C8.1843 41.5748 8.55526 41.328 9.22972 40.8784C10.1065 40.2964 11.3102 39.4961 13.4892 39.4961C18.6384 39.4961 22.8279 44.1576 22.8279 49.8898C22.8279 55.6219 18.6384 60.2835 13.4892 60.2835C11.3102 60.2835 10.1065 59.4831 9.22972 58.9011C8.55526 58.4516 8.1843 58.2047 7.23747 58.2047C5.53575 58.2047 4.15052 59.5923 4.15052 61.2968V76.9134H22.8279C23.9744 76.9134 24.9031 77.8436 24.9031 78.9921C24.9031 80.1406 23.9744 81.0709 22.8279 81.0709Z" fill="#001E46"/>
<path d="M61.2201 78.9819C55.6403 78.9819 50.0604 76.8538 45.8113 72.6001C37.3157 64.0903 37.3157 50.2433 45.8113 41.7335C54.3069 33.2236 68.1307 33.2236 76.6263 41.7335C85.1219 50.2433 85.1219 64.0903 76.6263 72.6001C72.3798 76.8538 66.8 78.9819 61.2201 78.9819ZM61.2201 39.504C56.7038 39.504 52.185 41.2268 48.7478 44.6697C41.8709 51.5581 41.8709 62.7677 48.7478 69.6587C52.185 73.1016 56.7038 74.8244 61.2201 74.8244C65.739 74.8244 70.2553 73.1016 73.6924 69.6587C80.5693 62.7703 80.5693 51.5607 73.6924 44.6697C70.2553 41.2268 65.7364 39.504 61.2201 39.504Z" fill="#001E46"/>
<path d="M49.897 60.1876C48.8153 60.1876 47.9022 59.3483 47.8295 58.2491C47.552 54.1592 49.0513 50.1524 51.9411 47.2578C53.6506 45.5454 55.7804 44.293 58.0943 43.6382C59.1993 43.329 60.3433 43.9708 60.6546 45.0751C60.9659 46.1795 60.3226 47.328 59.2201 47.6398C57.5858 48.1023 56.0839 48.9857 54.875 50.1966C52.8309 52.2442 51.7725 55.0765 51.9697 57.9659C52.0475 59.1118 51.1837 60.1044 50.0397 60.1824C49.9904 60.185 49.9437 60.1876 49.897 60.1876Z" fill="#001E46"/>
<path d="M46.5978 70.4004L42.876 74.1284L45.8109 77.0682L49.5326 73.3402L46.5978 70.4004Z" fill="#001E46"/>
<path d="M27.8292 99.0002C26.0004 99.0002 24.2805 98.2856 22.9887 96.9916C21.6968 95.6976 20.9835 93.9748 20.9835 92.1429C20.9835 90.3111 21.6968 88.5883 22.9887 87.2943L36.1277 74.1333C38.797 71.4595 43.1395 71.4595 45.8113 74.1333C47.1058 75.4299 47.8166 77.15 47.8166 78.9819C47.8166 80.8138 47.1032 82.5366 45.8113 83.8306L32.6724 96.9916C31.3779 98.2882 29.658 99.0002 27.8292 99.0002ZM40.9708 76.2822C40.2808 76.2822 39.5908 76.5446 39.0642 77.0721L25.9252 90.2331C25.4167 90.7424 25.1366 91.4206 25.1366 92.1429C25.1366 92.8653 25.4167 93.5435 25.9252 94.0528C26.4336 94.5621 27.1107 94.8427 27.8318 94.8427C28.553 94.8427 29.23 94.5621 29.7385 94.0528L42.8774 80.8918C43.3859 80.3825 43.666 79.7043 43.666 78.9819C43.666 78.2596 43.3859 77.5814 42.8774 77.0721C42.3509 76.5446 41.6608 76.2822 40.9708 76.2822Z" fill="#001E46"/>
</svg>
