<svg width="87" height="93" viewBox="0 0 87 93" fill="none" xmlns="http://www.w3.org/2000/svg">
<path d="M62.2644 70.4453H50.3066C48.9509 70.4453 47.6875 69.7788 46.9263 68.6611C46.1601 67.5382 46.0012 66.1103 46.4984 64.8413C46.8366 63.9748 46.8879 63.4851 46.8879 63.2698C46.8879 61.5727 45.5091 60.1935 43.8126 60.1935C42.1161 60.1935 40.7373 61.5727 40.7373 63.2698C40.7373 63.4339 40.7758 63.9184 41.1397 64.8362C41.642 66.1026 41.4831 67.5305 40.7194 68.6559C39.9582 69.7788 38.6897 70.4479 37.334 70.4479H25.3609C24.2281 70.4479 23.3107 69.5301 23.3107 68.397V56.4583C22.1421 56.9326 21.1375 57.1607 20.2379 57.1607H20.2354C16.2811 57.1607 13.0623 53.9408 13.0623 49.9826C13.0623 46.0244 16.2811 42.8045 20.2379 42.8045C21.1144 42.8045 22.1241 43.0327 23.3209 43.5018L23.3132 31.4836C23.3132 30.3505 24.2307 29.4327 25.3634 29.4327H37.3212C38.6769 29.4327 39.9403 30.0993 40.7014 31.217C41.4677 32.3399 41.6266 33.7678 41.1294 35.0368C40.7911 35.9033 40.7399 36.3929 40.7399 36.6083C40.7399 38.3054 42.1186 39.6846 43.8152 39.6846C45.5117 39.6846 46.8905 38.3054 46.8905 36.6083C46.8905 36.4442 46.852 35.9597 46.4881 35.0419C45.9858 33.7755 46.1447 32.3476 46.9084 31.2221C47.6695 30.0993 48.9381 29.4302 50.2938 29.4302H62.2669C63.3997 29.4302 64.3171 30.3479 64.3171 31.4811V43.4198C65.4857 42.9455 66.4903 42.7174 67.3898 42.7174H67.3924C71.3467 42.7174 74.5655 45.9372 74.5655 49.8955C74.5655 53.8537 71.3467 57.0736 67.3898 57.0736C66.5134 57.0736 65.5037 56.8454 64.3069 56.3763L64.3146 68.3945C64.3146 69.5276 63.3971 70.4453 62.2644 70.4453ZM27.4111 66.3436H37.334C36.8624 65.1694 36.6369 64.1619 36.6369 63.2672C36.6369 59.309 39.8557 56.0891 43.8126 56.0891C47.7695 56.0891 50.9883 59.309 50.9883 63.2672C50.9883 64.1773 50.7679 65.1797 50.3168 66.3359L60.2167 66.341V56.3737C60.2167 55.0175 60.8856 53.7511 62.0055 52.9872C63.1254 52.2232 64.5452 52.0617 65.8061 52.5565C66.7594 52.9308 67.2335 52.9692 67.3924 52.9692C69.0889 52.9692 70.4677 51.59 70.4677 49.8929C70.4677 48.1958 69.0889 46.8166 67.3924 46.8166C67.2258 46.8166 66.7466 46.855 65.8522 47.2165C64.5811 47.7266 63.1485 47.5754 62.0158 46.8089C60.8907 46.0475 60.2167 44.7785 60.2167 43.4172V33.5294H50.2938C50.7653 34.7035 50.9908 35.711 50.9908 36.6057C50.9908 40.5639 47.772 43.7838 43.8152 43.7838C39.8583 43.7838 36.6395 40.5639 36.6395 36.6057C36.6395 35.6956 36.8599 34.6933 37.3109 33.5371L27.4111 33.5319V43.5018C27.4111 44.858 26.7422 46.1244 25.6223 46.8883C24.5023 47.6523 23.0826 47.8138 21.8217 47.319C20.8684 46.9447 20.3943 46.9063 20.2354 46.9063C18.5388 46.9063 17.1601 48.2855 17.1601 49.9826C17.1601 51.6797 18.5388 53.059 20.2354 53.059C20.402 53.059 20.8812 53.0205 21.7756 52.659C23.0467 52.1489 24.4793 52.3001 25.612 53.0666C26.7371 53.828 27.4111 55.097 27.4111 56.4583V66.3436Z" fill="#001E46"/>
<path d="M84.1425 58.6679C84.0323 58.6679 83.9195 58.6576 83.8068 58.6397C82.6894 58.4551 81.9334 57.3989 82.1179 56.2812C82.8124 52.0692 82.8073 47.7802 82.1 43.5298C80.3907 33.2625 74.7885 24.2745 66.3238 18.2244C57.8565 12.1717 47.544 9.78244 37.2802 11.4898C36.1654 11.6744 35.107 10.9207 34.9199 9.80295C34.7328 8.68521 35.4888 7.62901 36.6062 7.44186C47.9515 5.55248 59.3505 8.19556 68.7071 14.884C78.0637 21.5725 84.2578 31.5065 86.144 42.853C86.9257 47.5495 86.9333 52.2896 86.1645 56.9477C85.9954 57.9552 85.1266 58.6679 84.1425 58.6679Z" fill="#001E46"/>
<path d="M45.4579 18.222C45.0146 18.222 44.5686 18.0785 44.1919 17.7836L35.6734 11.0798C35.2198 10.7235 34.9353 10.1902 34.8969 9.61343C34.8558 9.03662 35.0609 8.47006 35.4581 8.05219L42.5364 0.635675C43.318 -0.184679 44.6173 -0.212879 45.4348 0.569022C46.2524 1.35092 46.2831 2.65067 45.5015 3.46846L39.9813 9.25196L46.7265 14.5586C47.6157 15.2585 47.7695 16.548 47.0699 17.4376C46.6675 17.9528 46.0653 18.222 45.4579 18.222Z" fill="#001E46"/>
<path d="M12.0115 78.041C11.4195 78.041 10.8327 77.7872 10.4277 77.2924C3.12136 68.4095 -0.29221 57.2116 0.820021 45.76C1.93225 34.3109 7.43446 23.977 16.3144 16.6682C20.0303 13.6098 24.182 11.2128 28.654 9.54905C29.7149 9.15426 30.8964 9.69518 31.291 10.7565C31.6857 11.8178 31.145 12.9997 30.084 13.3945C26.04 14.8993 22.2856 17.0681 18.9207 19.8368C10.8865 26.4509 5.90707 35.7978 4.90247 46.1574C3.89531 56.5169 6.98342 66.6483 13.5953 74.6852C14.3154 75.5594 14.1899 76.8514 13.316 77.5718C12.9315 77.8897 12.4703 78.041 12.0115 78.041Z" fill="#001E46"/>
<path d="M12.0115 78.0414C11.8501 78.0414 11.6861 78.0208 11.5272 77.9824L1.5658 75.5572C0.466384 75.2906 -0.210181 74.1806 0.0589074 73.0782C0.327995 71.9784 1.4351 71.3016 2.53708 71.5708L10.3048 73.4628L11.5272 64.9644C11.6886 63.8441 12.7265 63.0648 13.849 63.2263C14.9689 63.3878 15.748 64.426 15.5866 65.5489L14.0438 76.2802C13.9618 76.8518 13.6414 77.362 13.1622 77.6876C12.8162 77.9209 12.4165 78.0414 12.0115 78.0414Z" fill="#001E46"/>
<path d="M43.6281 92.9996C38.6154 92.9996 33.5258 92.1177 28.5618 90.2565C24.0821 88.5774 19.9535 86.1958 16.2914 83.1784C15.4175 82.458 15.2919 81.166 16.012 80.2918C16.7322 79.4176 18.0238 79.292 18.8977 80.0123C22.2087 82.74 25.9426 84.8935 29.9995 86.4162C50.1119 93.9584 72.6076 83.727 80.1472 63.6078C80.5444 62.5465 81.7259 62.0081 82.7869 62.4081C83.8478 62.8054 84.3834 63.9872 83.9862 65.0486C77.5153 82.317 61.065 92.9996 43.6281 92.9996Z" fill="#001E46"/>
<path d="M84.9472 76.2186C84.0605 76.2186 83.243 75.6392 82.9816 74.7445L80.7341 67.0691L72.7665 70.2582C71.7158 70.6786 70.5215 70.1685 70.1012 69.1174C69.6809 68.0663 70.1909 66.8717 71.2417 66.4512L81.3055 62.4213C81.8412 62.2059 82.4434 62.229 82.9636 62.4802C83.4839 62.734 83.8734 63.1929 84.0349 63.7492L86.9154 73.5909C87.2332 74.6779 86.6104 75.8161 85.5238 76.1365C85.3316 76.1904 85.1394 76.2186 84.9472 76.2186Z" fill="#001E46"/>
</svg>
