<svg width="88" height="92" viewBox="0 0 88 92" fill="none" xmlns="http://www.w3.org/2000/svg">
<path d="M77.7903 30.0047C76.1491 30.0047 74.2956 29.1755 72.7896 27.5943L72.4614 27.2472C70.0286 24.6825 69.5846 21.2694 71.4767 19.476L76.1105 15.118C78.5626 12.8041 82.5013 12.9583 84.8955 15.4844L85.2237 15.8315C87.6178 18.3576 87.5792 22.2914 85.1465 24.6246L80.5127 28.9826C79.779 29.6768 78.8329 30.0047 77.7903 30.0047ZM80.2617 17.3549C79.721 17.3549 79.1804 17.5477 78.775 17.9334L74.1411 22.2914C74.0832 22.4842 74.257 23.5448 75.261 24.6054L75.5892 24.9525C76.6125 26.0323 77.6551 26.2252 77.9061 26.148L82.482 21.8286C83.3702 20.9801 83.3509 19.476 82.4241 18.4926L82.0959 18.1455C81.5939 17.6249 80.9181 17.3549 80.2617 17.3549Z" fill="#001E46"/>
<path d="M36.9354 91.9808L34.1744 89.2811C34.3289 89.1269 37.978 85.3667 40.0246 83.4383L40.6425 82.8598L41.492 82.9177C54.4281 83.8433 60.1431 75.995 62.2863 73.0254C62.5952 72.5819 62.8655 72.2348 63.0586 72.0034L65.9933 74.5102C65.8389 74.6838 65.6651 74.9345 65.4141 75.2816C63.2131 78.3283 56.5905 87.5071 42.0712 86.8129C40.0246 88.7991 36.974 91.9422 36.9354 91.9808Z" fill="#001E46"/>
<path d="M78.524 65.6207C78.273 65.6207 78.0027 65.6014 77.7517 65.5628C76.516 65.37 75.2224 64.7529 74.1411 63.8273L73.8129 63.5381C71.3029 61.3784 70.6079 58.1774 72.2297 56.2876L76.1105 51.8332C77.1338 50.6569 78.5626 49.9628 80.1458 49.8663C81.6904 49.7699 83.2157 50.2906 84.4128 51.3126L84.741 51.5825C87.2124 53.723 87.5213 57.4253 85.4361 59.855L81.5553 64.3094C80.8216 65.1579 79.7403 65.6207 78.524 65.6207ZM76.6511 60.8963C77.5779 61.7062 78.4853 61.8219 78.6977 61.7255L82.5013 57.3482C83.1964 56.5383 83.0806 55.2656 82.2117 54.5136L81.8835 54.2436C81.4587 53.8772 80.9181 53.7037 80.3775 53.723C79.8369 53.7615 79.3735 53.9929 79.0453 54.3786L75.1644 58.833C75.1644 58.968 75.4154 59.8357 76.3422 60.6263L76.6511 60.8963Z" fill="#001E46"/>
<path d="M39.3103 77.7688L35.6611 76.4961C39.7736 64.772 35.2363 54.5905 32.263 50.8495L31.6258 50.0396L31.9541 49.0562C33.4601 44.5439 34.1165 41.2851 34.6378 35.6737C34.8502 33.514 34.1165 31.2578 32.4947 28.9824C32.1664 28.5196 31.5293 28.4425 31.1045 28.5196C30.7377 28.5775 30.2936 28.7703 30.1585 29.156C29.0579 32.6848 28.2663 35.3266 27.6099 37.467C26.4128 41.4201 25.6984 43.8305 24.4048 47.1857C23.2463 50.1939 23.1498 54.1084 23.0726 57.2515C23.0146 59.9705 22.9567 61.9181 22.3389 63.2486C22.1651 63.6343 20.6591 66.064 17.8788 70.4798L14.6158 68.4358C16.508 65.4469 18.6318 62.0145 18.8635 61.5903C19.1145 61.031 19.1724 58.8906 19.2111 57.1744C19.2883 53.7227 19.4041 49.4419 20.7943 45.8166C22.03 42.5963 22.7057 40.3981 23.9028 36.3872C24.5593 34.2274 25.3509 31.5856 26.4514 28.0375C26.992 26.3213 28.5366 25.0487 30.4674 24.7401C32.514 24.4123 34.4834 25.2029 35.6225 26.7841C37.8043 29.8309 38.7696 32.974 38.48 36.0786C37.9587 41.6322 37.3216 45.0067 35.9314 49.3454C39.5033 54.3784 43.6931 65.2348 39.3103 77.7688Z" fill="#001E46"/>
<path d="M78.6012 53.511C78.3502 53.511 78.0799 53.4917 77.8096 53.4531C76.5546 53.2603 75.261 52.6433 74.1605 51.6984L73.8322 51.4091C71.2836 49.2108 70.5692 45.9906 72.2297 44.0815L76.1684 39.55C78.2923 37.101 82.0573 36.8503 84.5672 39.01L84.8955 39.2993C86.0925 40.3406 86.8262 41.7675 86.9807 43.3488C87.1158 44.9493 86.6332 46.4726 85.5906 47.6682L81.6518 52.1997C80.9181 53.0482 79.8369 53.511 78.6012 53.511ZM76.6898 48.7866C77.6551 49.6158 78.5819 49.7315 78.8136 49.6351L82.6944 45.1614C83.0419 44.7757 83.1964 44.2551 83.1578 43.6959C83.0999 43.1366 82.8296 42.616 82.4048 42.2303L82.0766 41.9411C81.1884 41.1698 79.8562 41.2469 79.1225 42.0761L75.1838 46.6076C75.1838 46.7619 75.4154 47.6489 76.4001 48.4781L76.6898 48.7866Z" fill="#001E46"/>
<path d="M78.6012 41.6901C77.1531 41.6901 75.5506 41.073 74.1605 39.8775L73.8322 39.5882C71.2836 37.3899 70.5885 34.1696 72.2297 32.2606L76.1684 27.7291C77.1724 26.5721 78.6012 25.8586 80.1651 25.7429C81.7676 25.6272 83.3316 26.1478 84.5672 27.2084L84.8955 27.4977C87.4055 29.6574 87.7144 33.4176 85.5905 35.8666L81.6518 40.3981C80.8988 41.2659 79.8176 41.6901 78.6012 41.6901ZM76.6897 36.9657C77.6551 37.7949 78.5819 37.9106 78.8136 37.8142L82.6751 33.3405C83.4088 32.492 83.2736 31.1808 82.3662 30.4094L82.038 30.1202C81.5939 29.7345 81.0146 29.5417 80.4354 29.5803C79.8948 29.6188 79.4121 29.8502 79.0839 30.2552L75.1451 34.7867C75.1451 34.941 75.3768 35.828 76.3615 36.6572L76.6897 36.9657Z" fill="#001E46"/>
<path d="M56.7836 65.563H50.9913V69.4196H56.7836V65.563Z" fill="#001E46"/>
<path d="M33.6145 26.9964H29.753V7.71327C29.753 3.45169 33.2091 0 37.476 0H70.2989C74.5659 0 78.022 3.45169 78.022 7.71327V17.3549H74.1604V7.71327C74.1604 5.59212 72.4228 3.85663 70.2989 3.85663H37.476C35.3522 3.85663 33.6145 5.59212 33.6145 7.71327V26.9964Z" fill="#001E46"/>
<path d="M70.2989 75.2042H37.476V71.3475H70.2989C72.4228 71.3475 74.1604 69.6121 74.1604 67.4909V63.6343H78.022V67.4909C78.022 71.7525 74.5659 75.2042 70.2989 75.2042Z" fill="#001E46"/>
<path d="M36.1245 91.9999L12.3762 68.2816L5.46405 75.2043L19.5393 89.2617L16.8169 91.9999L0 75.2043L12.3762 62.8438L38.8469 89.2617L36.1245 91.9999Z" fill="#001E46"/>
<path d="M13.7392 73.8423L11.0087 76.5693L12.9337 78.4919L15.6642 75.7649L13.7392 73.8423Z" fill="#001E46"/>
<path d="M74.1604 59.7778H39.4068V63.6345H74.1604V59.7778Z" fill="#001E46"/>
<path d="M76.0912 9.6416H31.6838V13.4982H76.0912V9.6416Z" fill="#001E46"/>
<path d="M47.8056 46.434C47.3808 46.434 46.9561 46.299 46.6085 46.0291C46.1065 45.6241 45.8362 45.0071 45.8748 44.3514L46.4348 37.7566L41.8975 31.7402C41.492 31.2003 41.3955 30.5061 41.6465 29.8698C41.8975 29.2334 42.4381 28.7899 43.0945 28.6742L49.6591 27.4979L53.1924 21.3273C53.8875 20.1318 55.8569 20.1318 56.5519 21.3273L60.0852 27.4979L66.6498 28.6742C67.3063 28.7899 67.8662 29.2527 68.0979 29.8698C68.3489 30.4868 68.2523 31.2003 67.8469 31.7402L63.3096 37.7759L63.8695 44.2357C63.9274 44.8721 63.6571 45.5084 63.1551 45.9134C62.6531 46.3183 61.9774 46.434 61.3595 46.2412L54.8915 44.1972L48.4234 46.3183C48.2111 46.4147 47.9987 46.434 47.8056 46.434ZM46.8595 31.9331L49.9487 36.0211C50.2383 36.4068 50.3735 36.8696 50.3349 37.3516L49.968 41.7675L54.2543 40.3598C54.6405 40.2248 55.0459 40.2248 55.4321 40.3598L59.7377 41.7096L59.3708 37.3902C59.3322 36.9081 59.4674 36.4453 59.757 36.0597L62.8462 31.9331L58.4827 31.1425C57.9228 31.046 57.4401 30.699 57.1505 30.1976L54.8336 26.1674L52.5166 30.1976C52.227 30.699 51.7443 31.0268 51.1844 31.1425L46.8595 31.9331Z" fill="#001E46"/>
</svg>
