<svg width="88" height="89" viewBox="0 0 88 89" fill="none" xmlns="http://www.w3.org/2000/svg">
<path d="M24.2849 55.0754C19.3043 55.0754 15.6893 51.4285 15.6893 46.4058V43.0133C15.6893 37.9906 19.3043 34.3438 24.2849 34.3438C29.2656 34.3438 32.8806 37.9906 32.8806 43.0133V46.4058C32.8806 51.4285 29.2656 55.0754 24.2849 55.0754ZM24.2849 38.1131C21.4293 38.1131 19.5096 40.0826 19.5096 43.0133V46.4058C19.5096 49.3365 21.4293 51.306 24.2849 51.306C27.1406 51.306 29.0603 49.3365 29.0603 46.4058V43.0133C29.0603 40.0826 27.1406 38.1131 24.2849 38.1131Z" fill="#001E46"/>
<path d="M34.7907 88.9996C33.7354 88.9996 32.8806 88.1562 32.8806 87.1149V71.9007C32.8806 70.2352 33.6208 68.6614 34.9101 67.5848L44.6757 59.4311C45.3633 58.8563 45.9388 58.1731 46.3853 57.4004L50.7738 49.7768C51.2203 48.8674 51.6954 47.6966 51.5259 46.6034C51.3731 45.6116 50.5279 45.1004 49.8498 44.9637C49.4295 44.8789 48.379 44.8035 47.6937 45.899L43.809 52.1609C43.4651 52.7169 43.0282 53.2046 42.5148 53.6121L35.6503 59.0636C34.2965 60.1379 32.5965 60.7292 30.8606 60.7292H18.3277C13.7506 60.7292 9.56737 63.0168 7.1415 66.8474L4.18318 71.5167C3.50746 72.584 3.7916 73.9928 4.82785 74.7231L14.8871 81.8119C15.7467 82.4173 15.9448 83.5929 15.3312 84.441C14.7176 85.2891 13.5261 85.4847 12.6666 84.8792L2.6097 77.7904C-0.0668786 75.9034 -0.797506 72.2706 0.945494 69.519L3.90382 64.8496C7.03167 59.9094 12.4254 56.9598 18.3301 56.9598H30.863C31.7321 56.9598 32.5821 56.663 33.2578 56.1259L40.1224 50.6744C40.2943 50.5377 40.44 50.3752 40.5546 50.1891L44.4441 43.9225C45.7788 41.7857 48.1426 40.7703 50.6162 41.2674C53.0946 41.7645 54.9355 43.635 55.308 46.031C55.6446 48.2007 54.8281 50.1773 54.1882 51.4754C54.1715 51.5107 54.1524 51.546 54.1333 51.5814L49.7137 59.2592C49.0451 60.4206 48.1832 61.4454 47.1517 62.3077L37.3861 70.4613C36.9563 70.8194 36.7104 71.3448 36.7104 71.9007V87.1149C36.7009 88.1562 35.8461 88.9996 34.7907 88.9996Z" fill="#001E46"/>
<path d="M13.7792 88.9996C12.7239 88.9996 11.8691 88.1562 11.8691 87.115V73.67C11.0047 74.1647 9.88731 73.915 9.32382 73.0834C8.73884 72.2164 8.97522 71.0479 9.85388 70.4707L12.7191 68.586C13.3041 68.1997 14.0586 68.1643 14.6794 68.4918C15.3002 68.8193 15.6893 69.4577 15.6893 70.1527V87.115C15.6893 88.1562 14.8346 88.9996 13.7792 88.9996Z" fill="#001E46"/>
<path d="M64.9303 60.409C64.5841 60.409 64.2451 60.3171 63.949 60.1404L51.1749 52.8655C50.2605 52.3448 49.9477 51.1928 50.4754 50.2905C51.003 49.3882 52.1706 49.0796 53.0851 49.6002L64.2307 55.9493L69.7463 46.5211C70.4506 45.3149 71.654 44.4951 73.0484 44.2713C74.4404 44.0475 75.8444 44.4456 76.8973 45.3644L77.0692 45.5128C77.542 45.9251 78.1867 46.4881 78.4875 46.6601C79.3184 47.1336 80.3714 47.2538 81.3742 46.9876C82.377 46.7214 83.227 46.0994 83.707 45.2796C84.1869 44.4597 84.3087 43.4208 84.0389 42.4313C83.7714 41.4419 83.1387 40.6032 82.3078 40.1296C82.0069 39.9577 81.188 39.6891 80.5911 39.4912L80.3762 39.4205C79.0415 38.9776 77.9909 37.9787 77.4919 36.6783C76.9928 35.3755 77.1098 33.9361 77.8142 32.7322L83.3321 23.304L73.7766 17.8596C73.4686 17.6853 73.1821 17.7489 73.0388 17.8031C72.8956 17.8573 72.6401 17.9939 72.5279 18.3237L72.4586 18.531C72.165 19.3957 71.8617 20.2909 71.4964 20.9152C69.4263 24.4537 64.6462 25.7188 61.0599 23.6739C59.3575 22.7033 58.0777 21.0306 57.55 19.0823C57.0224 17.134 57.2826 15.0538 58.2639 13.374C58.6293 12.7497 59.262 12.043 59.8732 11.3621L60.0213 11.1949C60.2529 10.9357 60.2481 10.6483 60.2218 10.4999C60.198 10.3515 60.1096 10.0735 59.8016 9.89914L50.2438 4.45709L44.7282 13.8853C44.0239 15.0915 42.8205 15.9113 41.4261 16.1351C40.0341 16.3589 38.6301 15.9608 37.5772 15.042L37.41 14.8959C36.9373 14.4837 36.2902 13.9183 35.9894 13.7463C34.2583 12.7592 31.7703 13.4188 30.7723 15.1268C30.2924 15.9467 30.1706 16.9856 30.4404 17.9751C30.7078 18.9645 31.3406 19.8032 32.1715 20.2767C32.4723 20.4487 33.2913 20.7173 33.8882 20.9152L34.1031 20.9859C35.4378 21.4288 36.4884 22.4277 36.9874 23.7281C37.4864 25.0309 37.3694 26.4703 36.6651 27.6742L33.8214 32.5367C33.2937 33.439 32.1261 33.7452 31.2116 33.227C30.2972 32.7063 29.9844 31.5543 30.512 30.652L33.3558 25.7895C33.5324 25.4856 33.468 25.2029 33.4154 25.0615C33.3605 24.9202 33.222 24.6681 32.8878 24.5574L32.6753 24.4867C31.799 24.1969 30.8941 23.8977 30.2589 23.5373C28.5565 22.5666 27.2767 20.894 26.7491 18.9457C26.219 16.9974 26.4817 14.9171 27.463 13.2374C29.5331 9.69889 34.3132 8.43615 37.8995 10.4787C38.5346 10.8415 39.2509 11.4658 39.9433 12.0713L40.1081 12.215C40.3707 12.4435 40.662 12.4388 40.8125 12.4129C40.9629 12.3893 41.2446 12.3021 41.4213 11.9982L47.8943 0.942131C48.2835 0.277776 49.0451 -0.0873832 49.814 0.0186309C50.0838 0.0563248 50.3369 0.148204 50.5589 0.284844L61.7141 6.63862C62.9366 7.3336 63.7675 8.52332 63.9944 9.89679C64.2212 11.2703 63.8177 12.6555 62.8865 13.6944L62.7337 13.8641C62.3158 14.3282 61.7452 14.9666 61.5709 15.2611C61.0909 16.0809 60.9692 17.1199 61.239 18.1093C61.5064 19.0988 62.1391 19.9375 62.97 20.411C64.7011 21.3981 67.1891 20.7409 68.1895 19.0305C68.3638 18.7337 68.636 17.9256 68.8365 17.3343L68.9082 17.1246C69.3571 15.8077 70.3694 14.7711 71.6874 14.2787C73.0078 13.7863 74.4667 13.9018 75.6868 14.5967L86.8659 20.967C87.1261 21.1084 87.3529 21.3086 87.5249 21.5607C87.9331 22.1591 87.9618 22.9342 87.5965 23.5585L81.1235 34.6193C80.9468 34.9232 81.0113 35.2059 81.0638 35.3472C81.1187 35.4886 81.2572 35.7407 81.5915 35.8514L81.804 35.9221C82.6803 36.2118 83.5852 36.511 84.2203 36.8715C85.9227 37.8421 87.2025 39.5148 87.7302 41.4607C88.2579 43.409 87.9976 45.4893 87.0163 47.169C86.0349 48.8487 84.3373 50.1115 82.3627 50.6321C80.3881 51.1551 78.2798 50.8983 76.5774 49.9277C75.9446 49.5673 75.2283 48.943 74.5383 48.3375L74.3712 48.1914C74.1085 47.9629 73.8172 47.9676 73.6668 47.9935C73.5164 48.0171 73.2346 48.1043 73.058 48.4082L66.5874 59.469C66.3128 59.9401 65.8448 60.27 65.3052 60.376C65.1786 60.3972 65.0545 60.409 64.9303 60.409Z" fill="#001E46"/>
<path d="M44.7497 48.9145C44.425 48.9145 44.0978 48.832 43.797 48.6624L36.8871 44.7257C35.9726 44.2051 35.6598 43.0531 36.1875 42.1508C36.7152 41.2485 37.8827 40.9399 38.7972 41.4605L45.7071 45.3972C46.6216 45.9178 46.9344 47.0698 46.4067 47.9721C46.0534 48.5776 45.4111 48.9145 44.7497 48.9145Z" fill="#001E46"/>
</svg>
