<svg width="59" height="70" viewBox="0 0 59 70" fill="none" xmlns="http://www.w3.org/2000/svg">
<path d="M3.336 52.24L30.216 30.736C32.712 28.816 33.96 26.832 33.96 24.784C33.96 23.44 33.512 22.32 32.616 21.424C31.784 20.464 30.568 19.984 28.968 19.984C27.112 19.984 25.576 20.72 24.36 22.192C23.144 23.664 22.472 25.648 22.344 28.144L0.552 25.648C1.384 17.328 4.68 10.992 10.44 6.64C16.2 2.288 23.016 0.111996 30.888 0.111996C34.408 0.111996 37.736 0.527996 40.872 1.36C44.008 2.192 46.888 3.472 49.512 5.2C52.2 6.864 54.312 9.168 55.848 12.112C57.448 15.056 58.248 18.448 58.248 22.288C58.248 25.808 57.544 29.008 56.136 31.888C54.792 34.704 53.288 36.912 51.624 38.512C49.96 40.112 47.752 41.872 45 43.792L35.016 50.896H58.44V70H3.336V52.24Z" fill="#B5D9F8"/>
</svg>
