<svg width="60" height="72" viewBox="0 0 60 72" fill="none" xmlns="http://www.w3.org/2000/svg">
<path d="M48.168 34V34.384C51.624 35.472 54.408 37.456 56.52 40.336C58.696 43.152 59.784 46.192 59.784 49.456C59.784 54.512 58.344 58.8 55.464 62.32C52.584 65.776 49.064 68.24 44.904 69.712C40.744 71.184 36.232 71.92 31.368 71.92C23.88 71.92 17.224 70.16 11.4 66.64C5.64 63.12 1.896 57.904 0.168 50.992L21.48 46C21.864 47.792 22.824 49.36 24.36 50.704C25.96 52.048 27.88 52.72 30.12 52.72C31.656 52.72 33.032 52.368 34.248 51.664C35.464 50.896 36.072 49.712 36.072 48.112C36.072 46.192 35.24 44.88 33.576 44.176C31.912 43.472 29.448 43.12 26.184 43.12H19.656V27.376H26.952C32.328 27.376 35.016 25.744 35.016 22.48C35.016 21.136 34.472 20.144 33.384 19.504C32.36 18.864 31.112 18.544 29.64 18.544C27.976 18.544 26.472 19.056 25.128 20.08C23.848 21.104 23.048 22.544 22.728 24.4L1.512 19.888C3.624 13.04 7.432 8.048 12.936 4.912C18.504 1.712 24.712 0.111996 31.56 0.111996C34.76 0.111996 37.864 0.495996 40.872 1.264C43.944 2.032 46.824 3.184 49.512 4.72C52.2 6.256 54.376 8.368 56.04 11.056C57.704 13.744 58.536 16.784 58.536 20.176C58.536 23.824 57.576 26.832 55.656 29.2C53.736 31.504 51.24 33.104 48.168 34Z" fill="#B5D9F8"/>
</svg>
