<svg width="60" height="70" viewBox="0 0 60 70" fill="none" xmlns="http://www.w3.org/2000/svg">
<path d="M59.4 45.152C59.4 49.632 58.536 53.568 56.808 56.96C55.144 60.288 52.904 62.848 50.088 64.64C47.272 66.432 44.264 67.744 41.064 68.576C37.928 69.472 34.6 69.92 31.08 69.92C23.848 69.92 17.32 68.032 11.496 64.256C5.672 60.48 2.152 55.392 0.936 48.992L22.056 43.616C22.44 45.536 23.4 47.168 24.936 48.512C26.472 49.856 28.264 50.528 30.312 50.528C34.536 50.528 36.648 48.8 36.648 45.344C36.648 41.504 32.616 39.584 24.552 39.584C19.56 39.584 13.64 40.256 6.792 41.6L9.192 0.0319996H55.368V19.04H28.488L28.104 23.936C30.152 23.616 31.848 23.456 33.192 23.456C40.744 23.456 46.984 25.28 51.912 28.928C56.904 32.576 59.4 37.984 59.4 45.152Z" fill="#B5D9F8"/>
</svg>
