<svg width="61" height="70" viewBox="0 0 61 70" fill="none" xmlns="http://www.w3.org/2000/svg">
<path d="M36.072 21.344H37.128C43.4 21.344 48.84 23.392 53.448 27.488C58.056 31.584 60.36 37.088 60.36 44C60.36 52.192 57.48 58.56 51.72 63.104C46.024 67.648 38.984 69.92 30.6 69.92C22.152 69.92 15.08 67.712 9.384 63.296C3.688 58.88 0.84 52.512 0.84 44.192C0.84 37.088 3.656 29.632 9.288 21.824L24.84 0.0319996H52.584L36.936 20.288L36.072 21.344ZM30.6 37.28C28.552 37.28 26.856 37.952 25.512 39.296C24.232 40.576 23.592 42.176 23.592 44.096C23.592 46.08 24.232 47.744 25.512 49.088C26.856 50.432 28.552 51.104 30.6 51.104C32.712 51.104 34.44 50.432 35.784 49.088C37.128 47.744 37.8 46.08 37.8 44.096C37.8 42.176 37.128 40.576 35.784 39.296C34.44 37.952 32.712 37.28 30.6 37.28Z" fill="#B5D9F8"/>
</svg>
