<svg width="57" height="72" viewBox="0 0 57 72" fill="none" xmlns="http://www.w3.org/2000/svg">
<path d="M32.632 18.64C31.608 17.616 30.264 17.104 28.6 17.104C26.936 17.104 25.592 17.616 24.568 18.64C23.544 19.664 23.032 20.816 23.032 22.096C23.032 23.44 23.544 24.656 24.568 25.744C25.592 26.768 26.936 27.28 28.6 27.28C30.264 27.28 31.608 26.768 32.632 25.744C33.656 24.656 34.168 23.44 34.168 22.096C34.168 20.816 33.656 19.664 32.632 18.64ZM32.92 45.04C31.896 43.952 30.456 43.408 28.6 43.408C26.744 43.408 25.272 43.952 24.184 45.04C23.16 46.128 22.648 47.472 22.648 49.072C22.648 50.672 23.16 52.016 24.184 53.104C25.272 54.128 26.744 54.64 28.6 54.64C30.456 54.64 31.896 54.128 32.92 53.104C34.008 52.016 34.552 50.672 34.552 49.072C34.552 47.472 34.008 46.128 32.92 45.04ZM45.496 34.384V34.672C48.824 35.888 51.544 37.904 53.656 40.72C55.768 43.536 56.824 46.768 56.824 50.416C56.824 57.584 54.072 62.96 48.568 66.544C43.064 70.128 36.408 71.92 28.6 71.92C23.608 71.92 19.064 71.248 14.968 69.904C10.872 68.56 7.416 66.224 4.6 62.896C1.784 59.568 0.376 55.44 0.376 50.512C0.376 46.928 1.4 43.76 3.448 41.008C5.496 38.256 8.248 36.176 11.704 34.768V34.48C8.76 33.392 6.328 31.568 4.408 29.008C2.488 26.448 1.528 23.504 1.528 20.176C1.528 16.784 2.296 13.776 3.832 11.152C5.368 8.464 7.416 6.352 9.976 4.816C12.6 3.216 15.48 2.032 18.616 1.264C21.752 0.495996 25.08 0.111996 28.6 0.111996C32.056 0.111996 35.352 0.495996 38.488 1.264C41.624 2.032 44.504 3.216 47.128 4.816C49.752 6.352 51.832 8.464 53.368 11.152C54.904 13.776 55.672 16.784 55.672 20.176C55.672 23.632 54.744 26.608 52.888 29.104C51.032 31.6 48.568 33.36 45.496 34.384Z" fill="#B5D9F8"/>
</svg>
