<svg width="61" height="70" viewBox="0 0 61 70" fill="none" xmlns="http://www.w3.org/2000/svg">
<path d="M25.128 48.688H24.072C17.8 48.688 12.36 46.64 7.752 42.544C3.144 38.448 0.84 32.944 0.84 26.032C0.84 17.84 3.688 11.472 9.384 6.928C15.144 2.384 22.216 0.111996 30.6 0.111996C39.048 0.111996 46.12 2.32 51.816 6.736C57.512 11.152 60.36 17.52 60.36 25.84C60.36 32.944 57.544 40.4 51.912 48.208L36.36 70H8.616L24.648 49.264L25.128 48.688ZM30.6 32.56C32.648 32.56 34.312 31.92 35.592 30.64C36.936 29.296 37.608 27.664 37.608 25.744C37.608 23.76 36.936 22.096 35.592 20.752C34.312 19.408 32.648 18.736 30.6 18.736C28.488 18.736 26.76 19.408 25.416 20.752C24.072 22.096 23.4 23.76 23.4 25.744C23.4 27.664 24.072 29.296 25.416 30.64C26.76 31.92 28.488 32.56 30.6 32.56Z" fill="#B5D9F8"/>
</svg>
