<svg width="306" height="72" viewBox="0 0 306 72" fill="none" xmlns="http://www.w3.org/2000/svg">
<path fill-rule="evenodd" clip-rule="evenodd" d="M71.5604 45.878C75.2988 53.9784 83.4929 59.5999 92.9999 59.5999C101.735 59.5999 109.362 54.8539 113.443 47.7999H126.386C121.526 61.5492 108.413 71.4 93 71.4C80.6869 71.4 69.842 65.1135 63.5 55.5749C63.4962 55.5807 63.4924 55.5864 63.4886 55.5921C60.2488 50.8789 56.8581 46.5367 55.4304 45.5753C55.425 45.5835 55.4193 45.5917 55.4135 45.5998C51.5176 42.7463 46.7139 41.0588 41.5164 41.0515V41.0499H22.1997V29.2499H42.0507V29.2559C47.5711 29.3428 52.7847 30.6933 57.4149 33.0309L57.4071 32.9694C62.1616 35.14 69.0059 40.5626 71.5581 45.8789L71.5604 45.878ZM53.102 49.8617C48.812 55.7632 41.854 59.5999 33.9999 59.5999C25.2646 59.5999 17.6378 54.854 13.5572 47.8H0.614322C5.47399 61.5492 18.5866 71.4 34 71.4C44.969 71.4 54.7728 66.411 61.2661 58.5785C59.3091 55.7936 56.6462 52.7298 53.102 49.8617ZM55.6147 26.5108C51.9618 18.202 43.6584 12.3999 33.9999 12.3999C25.2645 12.3999 17.6376 17.1459 13.5571 24.2H0.614319C5.47399 10.4507 18.5866 0.599976 34 0.599976C46.3131 0.599976 57.158 6.88649 63.5 16.425C69.842 6.88649 80.6869 0.599976 93 0.599976C108.413 0.599976 121.526 10.4507 126.386 24.1999H113.443C109.362 17.1458 101.735 12.3999 92.9999 12.3999C79.98 12.3999 69.4226 22.9433 69.4 35.9579L69.4 35.9864C64.8602 32.0417 59.7157 28.1696 56.4648 26.9583C56.1395 26.7721 55.8578 26.6241 55.6147 26.5108Z" fill="#5AAAF0"/>
<path d="M140.2 31.8056L143.283 29.4368C144.667 31.254 146.647 32.1626 149.221 32.1626C151.363 32.1626 153.126 31.5028 154.51 30.1831C155.917 28.8635 156.685 27.1761 156.814 25.1209H146.917V21.6812H156.75C156.447 19.8424 155.614 18.3173 154.251 17.1058C152.888 15.8943 151.211 15.2886 149.221 15.2886C147.923 15.2886 146.755 15.5157 145.717 15.97C144.7 16.4027 143.932 16.9652 143.413 17.6574L140.622 15.029C141.487 13.969 142.688 13.1469 144.224 12.5628C145.781 11.9787 147.436 11.6866 149.189 11.6866C152.672 11.6866 155.57 12.8224 157.885 15.0939C160.2 17.3438 161.357 20.2318 161.357 23.758C161.357 27.2843 160.2 30.1831 157.885 32.4546C155.57 34.7261 152.672 35.8619 149.189 35.8619C147.22 35.8619 145.446 35.4941 143.867 34.7586C142.309 34.0231 141.087 33.0387 140.2 31.8056Z" fill="#051E46"/>
<path d="M165.163 35.2453V12.2707H169.252V22.2004H169.349L178.955 12.2707H184.471L173.73 22.8819L185.185 35.2453H179.441L169.349 23.7256H169.252V35.2453H165.163Z" fill="#051E46"/>
<path d="M184.971 23.6931C184.971 20.0587 186.118 17.1491 188.411 14.9641C190.726 12.7791 193.679 11.6866 197.27 11.6866C200.904 11.6866 203.879 12.7791 206.194 14.9641C208.508 17.1491 209.666 20.0587 209.666 23.6931C209.666 27.2626 208.498 30.1831 206.161 32.4546C203.846 34.7045 200.883 35.8294 197.27 35.8294C193.7 35.8294 190.758 34.7045 188.444 32.4546C186.129 30.1831 184.971 27.2626 184.971 23.6931ZM189.417 23.6931C189.417 26.1593 190.153 28.1929 191.624 29.7937C193.095 31.373 194.988 32.1626 197.302 32.1626C199.639 32.1626 201.543 31.373 203.014 29.7937C204.485 28.1929 205.22 26.1593 205.22 23.6931C205.22 21.2918 204.485 19.2908 203.014 17.6899C201.564 16.089 199.66 15.2886 197.302 15.2886C194.966 15.2886 193.062 16.089 191.591 17.6899C190.142 19.2908 189.417 21.2918 189.417 23.6931Z" fill="#051E46"/>
<path d="M233.148 15.1912L230.033 17.6574C229.47 16.8786 228.702 16.2945 227.729 15.9051C226.777 15.4941 225.803 15.2886 224.808 15.2886C222.472 15.2886 220.557 16.089 219.064 17.6899C217.593 19.2908 216.858 21.2918 216.858 23.6931C216.858 26.2026 217.561 28.247 218.967 29.8262C220.395 31.3838 222.288 32.1626 224.646 32.1626C227.069 32.1626 228.929 31.2756 230.227 29.5017L233.505 31.8056C231.363 34.4882 228.399 35.8294 224.613 35.8294C221.022 35.8294 218.08 34.7045 215.787 32.4546C213.494 30.1831 212.347 27.2626 212.347 23.6931C212.347 20.0804 213.515 17.1815 215.852 14.9965C218.21 12.7899 221.195 11.6866 224.808 11.6866C226.409 11.6866 227.977 11.9895 229.513 12.5952C231.071 13.1793 232.282 14.0447 233.148 15.1912Z" fill="#051E46"/>
<path d="M234.399 23.6931C234.399 20.0587 235.546 17.1491 237.839 14.9641C240.154 12.7791 243.107 11.6866 246.698 11.6866C250.332 11.6866 253.307 12.7791 255.622 14.9641C257.936 17.1491 259.094 20.0587 259.094 23.6931C259.094 27.2626 257.926 30.1831 255.589 32.4546C253.274 34.7045 250.311 35.8294 246.698 35.8294C243.128 35.8294 240.186 34.7045 237.871 32.4546C235.557 30.1831 234.399 27.2626 234.399 23.6931ZM238.845 23.6931C238.845 26.1593 239.58 28.1929 241.052 29.7937C242.523 31.373 244.416 32.1626 246.73 32.1626C249.067 32.1626 250.97 31.373 252.442 29.7937C253.913 28.1929 254.648 26.1593 254.648 23.6931C254.648 21.2918 253.913 19.2908 252.442 17.6899C250.992 16.089 249.088 15.2886 246.73 15.2886C244.394 15.2886 242.49 16.089 241.019 17.6899C239.57 19.2908 238.845 21.2918 238.845 23.6931Z" fill="#051E46"/>
<path d="M272.321 35.8294V33.0387C269.228 32.9955 266.675 32.0977 264.663 30.3454C262.651 28.5715 261.645 26.2567 261.645 23.4011C261.645 20.3724 262.597 18.036 264.501 16.3919C266.426 14.7478 269.033 13.8716 272.321 13.7634V11.6866H276.54V13.7634C279.828 13.8716 282.424 14.7478 284.328 16.3919C286.253 18.036 287.216 20.3724 287.216 23.4011C287.216 26.2567 286.21 28.5715 284.198 30.3454C282.186 32.0977 279.634 32.9955 276.54 33.0387V35.8294H272.321ZM272.321 29.4368V17.3329C270.223 17.4844 268.655 18.1009 267.616 19.1826C266.578 20.2643 266.059 21.6812 266.059 23.4335C266.059 27.0247 268.146 29.0258 272.321 29.4368ZM276.54 29.4368C280.715 29.0258 282.803 27.0247 282.803 23.4335C282.803 21.6812 282.284 20.2643 281.245 19.1826C280.207 18.1009 278.638 17.4844 276.54 17.3329V29.4368Z" fill="#051E46"/>
<path d="M294.546 35.2453V15.8402H287.505V12.2707H305.676V15.8402H298.635V35.2453H294.546Z" fill="#051E46"/>
<path d="M140.66 59.5999V48.0029H148.342V49.4153H142.345V59.5999H140.66Z" fill="#051E46"/>
<path d="M151.314 65.5471V48.0029H152.999V50.01H153.073C153.536 49.2832 154.163 48.7215 154.956 48.325C155.749 47.912 156.575 47.7055 157.434 47.7055C159.218 47.7055 160.664 48.292 161.771 49.4649C162.878 50.6213 163.431 52.0668 163.431 53.8014C163.431 55.536 162.878 56.9897 161.771 58.1627C160.664 59.3191 159.218 59.8973 157.434 59.8973C156.592 59.8973 155.774 59.699 154.981 59.3025C154.188 58.9061 153.552 58.3526 153.073 57.6423H152.999V65.5471H151.314ZM157.261 58.46C158.615 58.46 159.681 58.0222 160.457 57.1467C161.25 56.2546 161.647 55.1395 161.647 53.8014C161.647 52.4633 161.25 51.3482 160.457 50.4561C159.681 49.564 158.615 49.118 157.261 49.118C155.972 49.118 154.907 49.564 154.064 50.4561C153.222 51.3482 152.8 52.4633 152.8 53.8014C152.8 55.1395 153.222 56.2546 154.064 57.1467C154.907 58.0222 155.972 58.46 157.261 58.46Z" fill="#051E46"/>
<path d="M167.34 65.5471C166.828 65.5471 166.324 65.4975 165.829 65.3984L166.002 63.8621C166.399 63.9942 166.812 64.0603 167.241 64.0603C167.787 64.0603 168.224 63.8868 168.555 63.5399C168.902 63.2095 169.207 62.6974 169.472 62.0036L170.413 59.5751L165.457 48.0029H167.34L171.28 57.791H171.33L174.923 48.0029H176.757L170.983 62.5983C170.603 63.573 170.132 64.3081 169.571 64.8037C169.026 65.2993 168.282 65.5471 167.34 65.5471Z" fill="#051E46"/>
<path d="M179.638 59.5999V48.0029H189.501V59.5999H187.816V49.4153H181.323V59.5999H179.638Z" fill="#051E46"/>
<path d="M194.212 59.5999V48.0029H204.074V59.5999H202.389V49.4153H195.897V59.5999H194.212Z" fill="#051E46"/>
</svg>
