<svg width="136" height="32" viewBox="0 0 136 32" fill="none" xmlns="http://www.w3.org/2000/svg">
<path fill-rule="evenodd" clip-rule="evenodd" d="M31.8048 20.2981L31.8038 20.2985C30.6596 17.9153 27.5915 15.4844 25.4601 14.5113L25.4636 14.5387C23.3879 13.4908 21.0506 12.8853 18.5758 12.8464V12.8436H9.67662V18.1335H18.3362V18.1343C20.6662 18.1375 22.8197 18.894 24.5662 20.1733C24.5688 20.1696 24.5714 20.166 24.5738 20.1623C25.2139 20.5933 26.7339 22.5399 28.1863 24.6528C28.188 24.6503 28.1897 24.6477 28.1914 24.6452C31.0345 28.9213 35.8962 31.7395 41.4161 31.7395C48.3259 31.7395 54.2042 27.3234 56.3828 21.1596H50.5805C48.7512 24.322 45.3321 26.4496 41.416 26.4496C37.1541 26.4496 33.4807 23.9294 31.8048 20.2981ZM27.1899 25.9916C26.3127 24.7432 25.1189 23.3697 23.53 22.0839C21.6069 24.7294 18.4876 26.4494 14.9667 26.4494C11.0508 26.4494 7.63173 24.3219 5.80241 21.1596H4.32258e-05C2.17863 27.3234 8.05696 31.7394 14.9667 31.7394C19.884 31.7394 24.279 29.5029 27.1899 25.9916ZM30.8364 15.8638L30.8363 15.8261C30.8599 10.0031 35.5875 5.28997 41.416 5.28997C45.332 5.28997 48.7511 7.41755 50.5804 10.5798H56.3828C54.2042 4.41612 48.3259 9.76563e-05 41.4161 9.76563e-05C35.8962 9.76563e-05 31.0346 2.81827 28.1914 7.09429C25.3483 2.81821 20.4866 0 14.9667 0C8.05691 0 2.17855 4.41608 0 10.5799H5.80221C7.63148 7.41745 11.0506 5.28978 14.9667 5.28978C19.2967 5.28978 23.0192 7.89098 24.6567 11.616C24.7656 11.6667 24.8918 11.733 25.0375 11.8164C26.4949 12.3595 28.8012 14.0954 30.8364 15.8638Z" fill="#5AAAF0"/>
<path d="M63 14.1544L64.36 13.0765C64.9707 13.9034 65.844 14.3168 66.9797 14.3168C67.9245 14.3168 68.7023 14.0166 69.3131 13.4161C69.9334 12.8157 70.2722 12.0479 70.3294 11.1128H65.9633V9.54765H70.3008C70.1672 8.71096 69.7998 8.017 69.1985 7.46577C68.5973 6.91454 67.8577 6.63893 66.9797 6.63893C66.407 6.63893 65.8917 6.74228 65.4336 6.94899C64.9851 7.14586 64.6463 7.40179 64.4172 7.71678L63.1861 6.52081C63.5678 6.03848 64.0975 5.66443 64.7751 5.39866C65.4622 5.13289 66.1923 5 66.9653 5C68.5019 5 69.7807 5.51678 70.8019 6.55033C71.823 7.57405 72.3336 8.88814 72.3336 10.4926C72.3336 12.0971 71.823 13.4161 70.8019 14.4497C69.7807 15.4832 68.5019 16 66.9653 16C66.0969 16 65.3143 15.8327 64.6176 15.498C63.9305 15.1633 63.3913 14.7154 63 14.1544Z" fill="#051E46"/>
<path d="M74.0126 15.7195V5.26577H75.8164V9.78389H75.8593L80.0966 5.26577H82.5302L77.7919 10.094L82.8452 15.7195H80.3114L75.8593 10.4779H75.8164V15.7195H74.0126Z" fill="#051E46"/>
<path d="M82.7509 10.4631C82.7509 8.8094 83.2567 7.48546 84.2683 6.49128C85.2895 5.49709 86.5922 5 88.1764 5C89.7797 5 91.092 5.49709 92.1131 6.49128C93.1343 7.48546 93.6449 8.8094 93.6449 10.4631C93.6449 12.0872 93.1295 13.4161 92.0988 14.4497C91.0776 15.4734 89.7702 15.9852 88.1764 15.9852C86.6017 15.9852 85.3038 15.4734 84.2826 14.4497C83.2615 13.4161 82.7509 12.0872 82.7509 10.4631ZM84.7121 10.4631C84.7121 11.5852 85.0366 12.5105 85.6855 13.2389C86.3345 13.9575 87.1696 14.3168 88.1907 14.3168C89.2214 14.3168 90.0613 13.9575 90.7102 13.2389C91.3592 12.5105 91.6837 11.5852 91.6837 10.4631C91.6837 9.37047 91.3592 8.45996 90.7102 7.73154C90.0708 7.00313 89.231 6.63893 88.1907 6.63893C87.16 6.63893 86.3202 7.00313 85.6712 7.73154C85.0318 8.45996 84.7121 9.37047 84.7121 10.4631Z" fill="#051E46"/>
<path d="M104.004 6.59463L102.63 7.71678C102.382 7.36242 102.043 7.09664 101.613 6.91946C101.193 6.73244 100.764 6.63893 100.325 6.63893C99.2942 6.63893 98.4496 7.00313 97.7911 7.73154C97.1421 8.45996 96.8176 9.37047 96.8176 10.4631C96.8176 11.6049 97.1278 12.5351 97.7481 13.2537C98.378 13.9624 99.213 14.3168 100.253 14.3168C101.322 14.3168 102.143 13.9132 102.716 13.106L104.161 14.1544C103.217 15.3749 101.909 15.9852 100.239 15.9852C98.6547 15.9852 97.3568 15.4734 96.3452 14.4497C95.3336 13.4161 94.8278 12.0872 94.8278 10.4631C94.8278 8.81924 95.3431 7.50022 96.3738 6.50604C97.4141 5.50201 98.7311 5 100.325 5C101.031 5 101.723 5.13781 102.401 5.41342C103.088 5.67919 103.622 6.07293 104.004 6.59463Z" fill="#051E46"/>
<path d="M104.556 10.4631C104.556 8.8094 105.062 7.48546 106.073 6.49128C107.095 5.49709 108.397 5 109.982 5C111.585 5 112.897 5.49709 113.918 6.49128C114.939 7.48546 115.45 8.8094 115.45 10.4631C115.45 12.0872 114.935 13.4161 113.904 14.4497C112.883 15.4734 111.575 15.9852 109.982 15.9852C108.407 15.9852 107.109 15.4734 106.088 14.4497C105.067 13.4161 104.556 12.0872 104.556 10.4631ZM106.517 10.4631C106.517 11.5852 106.842 12.5105 107.491 13.2389C108.14 13.9575 108.975 14.3168 109.996 14.3168C111.027 14.3168 111.866 13.9575 112.515 13.2389C113.164 12.5105 113.489 11.5852 113.489 10.4631C113.489 9.37047 113.164 8.45996 112.515 7.73154C111.876 7.00313 111.036 6.63893 109.996 6.63893C108.965 6.63893 108.125 7.00313 107.476 7.73154C106.837 8.45996 106.517 9.37047 106.517 10.4631Z" fill="#051E46"/>
<path d="M121.285 15.9852V14.7154C119.921 14.6957 118.795 14.2872 117.907 13.4899C117.019 12.6828 116.576 11.6295 116.576 10.3302C116.576 8.95213 116.996 7.88904 117.835 7.14094C118.685 6.39284 119.835 5.99418 121.285 5.94497V5H123.146V5.94497C124.597 5.99418 125.742 6.39284 126.582 7.14094C127.431 7.88904 127.856 8.95213 127.856 10.3302C127.856 11.6295 127.412 12.6828 126.525 13.4899C125.637 14.2872 124.511 14.6957 123.146 14.7154V15.9852H121.285ZM121.285 13.0765V7.56913C120.36 7.63803 119.668 7.91857 119.21 8.41074C118.752 8.90291 118.523 9.54765 118.523 10.345C118.523 11.979 119.444 12.8895 121.285 13.0765ZM123.146 13.0765C124.988 12.8895 125.909 11.979 125.909 10.345C125.909 9.54765 125.68 8.90291 125.222 8.41074C124.764 7.91857 124.072 7.63803 123.146 7.56913V13.0765Z" fill="#051E46"/>
<path d="M131.09 15.7195V6.88993H127.983V5.26577H136V6.88993H132.894V15.7195H131.09Z" fill="#051E46"/>
<path d="M63 25.6667V21.1167H66.3918V21.6708H63.744V25.6667H63Z" fill="#051E46"/>
<path d="M67.7039 28V21.1167H68.4479V21.9042H68.4808C68.685 21.619 68.9622 21.3986 69.3123 21.2431C69.6624 21.081 70.0272 21 70.4065 21C71.1942 21 71.8325 21.2301 72.3212 21.6903C72.8099 22.144 73.0543 22.7111 73.0543 23.3917C73.0543 24.0722 72.8099 24.6426 72.3212 25.1028C71.8325 25.5565 71.1942 25.7833 70.4065 25.7833C70.0344 25.7833 69.6734 25.7056 69.3233 25.55C68.9731 25.3944 68.6923 25.1773 68.4808 24.8986H68.4479V28H67.7039ZM70.3299 25.2194C70.928 25.2194 71.3985 25.0477 71.7413 24.7042C72.0914 24.3542 72.2665 23.9167 72.2665 23.3917C72.2665 22.8667 72.0914 22.4292 71.7413 22.0792C71.3985 21.7292 70.928 21.5542 70.3299 21.5542C69.7609 21.5542 69.2904 21.7292 68.9184 22.0792C68.5464 22.4292 68.3604 22.8667 68.3604 23.3917C68.3604 23.9167 68.5464 24.3542 68.9184 24.7042C69.2904 25.0477 69.7609 25.2194 70.3299 25.2194Z" fill="#051E46"/>
<path d="M74.7804 28C74.5543 28 74.3318 27.9806 74.113 27.9417L74.1896 27.3389C74.3647 27.3907 74.547 27.4167 74.7367 27.4167C74.9774 27.4167 75.1707 27.3486 75.3166 27.2125C75.4697 27.0829 75.6047 26.8819 75.7214 26.6097L76.1372 25.6569L73.9489 21.1167H74.7804L76.5201 24.9569H76.542L78.1285 21.1167H78.9382L76.3888 26.8431C76.2211 27.2255 76.0132 27.5139 75.7652 27.7083C75.5245 27.9028 75.1962 28 74.7804 28Z" fill="#051E46"/>
<path d="M80.2104 25.6667V21.1167H84.5651V25.6667H83.8211V21.6708H80.9545V25.6667H80.2104Z" fill="#051E46"/>
<path d="M86.6453 25.6667V21.1167H91V25.6667H90.256V21.6708H87.3893V25.6667H86.6453Z" fill="#051E46"/>
</svg>
