<svg width="1920" height="1195" viewBox="0 0 1920 1195" fill="none" xmlns="http://www.w3.org/2000/svg">
<path fill-rule="evenodd" clip-rule="evenodd" d="M899.501 597.501C899.501 597.501 899.501 597.501 899.501 597.501C899.501 399.507 738.996 239.002 541.002 239.002C343.008 239.002 182.502 399.507 182.502 597.501C182.502 597.501 182.502 597.501 182.502 597.501L302.003 597.501C302.003 597.501 302.003 597.501 302.003 597.5C302.003 465.505 409.006 358.501 541.002 358.501C672.998 358.501 780.002 465.505 780.002 597.5C780.002 597.501 780.002 597.501 780.002 597.501L899.501 597.501Z" fill="#F9F9F9"/>
<path fill-rule="evenodd" clip-rule="evenodd" d="M1138.5 597.501C1138.5 597.501 1138.5 597.5 1138.5 597.499C1138.5 267.509 870.991 -4.05418e-05 541.002 -2.61175e-05C211.012 -1.16932e-05 -56.4973 267.509 -56.4973 597.499C-56.4973 597.5 -56.4973 597.501 -56.4973 597.501L63.0029 597.501C63.0029 597.5 63.0029 597.499 63.0029 597.498C63.0029 333.507 277.01 119.499 541.002 119.499C804.994 119.499 1019 333.507 1019 597.498C1019 597.499 1019 597.5 1019 597.501L1138.5 597.501Z" fill="#F9F9F9"/>
<path fill-rule="evenodd" clip-rule="evenodd" d="M1736 597.5C1736 597.501 1736 597.501 1736 597.501C1736 795.495 1575.49 956.001 1377.5 956.001C1179.51 956.001 1019 795.495 1019 597.501C1019 597.501 1019 597.501 1019 597.5L1138.5 597.5C1138.5 597.501 1138.5 597.501 1138.5 597.502C1138.5 729.497 1245.51 836.501 1377.5 836.501C1509.5 836.501 1616.5 729.497 1616.5 597.502C1616.5 597.501 1616.5 597.501 1616.5 597.5L1736 597.5Z" fill="#F9F9F9"/>
<path fill-rule="evenodd" clip-rule="evenodd" d="M1975 597.5C1975 597.501 1975 597.501 1975 597.501C1975 927.49 1707.49 1195 1377.5 1195C1047.51 1195 780.002 927.491 780.002 597.501C780.002 597.501 780.002 597.501 780.002 597.5L899.502 597.5C899.502 597.501 899.502 597.501 899.502 597.501C899.502 861.493 1113.51 1075.5 1377.5 1075.5C1641.49 1075.5 1855.5 861.493 1855.5 597.501C1855.5 597.501 1855.5 597.501 1855.5 597.5L1975 597.5Z" fill="#F9F9F9"/>
</svg>
