<svg width="1137" height="598" viewBox="0 0 1137 598" fill="none" xmlns="http://www.w3.org/2000/svg">
<path fill-rule="evenodd" clip-rule="evenodd" d="M239.499 0.49892C239.499 0.499093 239.499 0.499265 239.499 0.499438C239.499 198.493 400.004 358.999 597.998 358.999C795.992 358.999 956.497 198.493 956.497 0.49947C956.497 0.499297 956.497 0.499124 956.497 0.498951L836.997 0.498946C836.997 0.499271 836.997 0.499597 836.997 0.499922C836.997 132.496 729.994 239.5 597.998 239.5C466.002 239.5 358.998 132.496 358.998 0.499901C358.998 0.499576 358.998 0.49925 358.998 0.498925L239.499 0.49892Z" fill="#F9F9F9"/>
<path fill-rule="evenodd" clip-rule="evenodd" d="M0.499268 0.498727C0.499268 0.49948 0.499268 0.500233 0.499268 0.500985C0.499253 330.491 268.009 598 597.998 598C927.988 598 1195.5 330.491 1195.5 0.501038C1195.5 0.500285 1195.5 0.499532 1195.5 0.498779L1076 0.498774C1076 0.49969 1076 0.500605 1076 0.501521C1076 264.493 861.989 478.501 597.998 478.501C334.006 478.501 119.999 264.493 119.999 0.501479C119.999 0.500563 119.999 0.499648 119.999 0.498732L0.499268 0.498727Z" fill="#F9F9F9"/>
</svg>
