<svg width="1142" height="598" viewBox="0 0 1142 598" fill="none" xmlns="http://www.w3.org/2000/svg">
<path fill-rule="evenodd" clip-rule="evenodd" d="M185.999 597.499C185.999 597.499 185.999 597.499 185.999 597.499C185.999 399.505 346.505 238.999 544.499 238.999C742.493 238.999 902.998 399.505 902.998 597.499C902.998 597.499 902.998 597.499 902.998 597.5L783.498 597.499C783.498 597.499 783.498 597.499 783.498 597.498C783.498 465.502 676.494 358.499 544.498 358.499C412.503 358.499 305.499 465.502 305.499 597.498C305.499 597.499 305.499 597.499 305.499 597.499L185.999 597.499Z" fill="#F9F9F9"/>
<path fill-rule="evenodd" clip-rule="evenodd" d="M-53 597.499C-53 597.499 -53 597.499 -53 597.499C-53 267.509 214.509 9.04925e-06 544.499 2.34736e-05C874.489 3.78979e-05 1142 267.509 1142 597.499C1142 597.499 1142 597.499 1142 597.5L1022.5 597.499C1022.5 597.499 1022.5 597.499 1022.5 597.499C1022.5 333.507 808.49 119.499 544.499 119.499C280.507 119.499 66.4994 333.507 66.4994 597.499C66.4994 597.499 66.4994 597.499 66.4994 597.499L-53 597.499Z" fill="#F9F9F9"/>
</svg>
