<svg width="150" height="105" viewBox="0 0 150 105" fill="none" xmlns="http://www.w3.org/2000/svg">
<mask id="mask0_853_3700" style="mask-type:alpha" maskUnits="userSpaceOnUse" x="0" y="0" width="150" height="105">
<rect width="150" height="104.605" fill="#D9D9D9"/>
</mask>
<g mask="url(#mask0_853_3700)">
<path d="M79.0358 81.9775H34.7296C31.3067 81.9775 28.6184 79.2891 28.6184 75.8663V16.473C28.6184 13.1089 31.3655 10.3618 34.7296 10.3618H115.409C118.729 10.3618 121.52 13.1677 121.52 16.473V26.6975C121.52 27.6818 117.936 27.6818 117.936 26.6975V16.473C117.936 15.1509 116.731 13.9463 115.409 13.9463H34.7296C33.3634 13.9463 32.2029 15.1068 32.2029 16.473V75.8516C32.2029 77.2912 33.29 78.3783 34.7296 78.3783H79.0211" fill="#001E46"/>
<path d="M59.7328 90.7329H79.7704C80.4021 91.0855 80.7694 94.3174 79.7704 94.3174H59.7328" fill="#001E46"/>
<path d="M66.2699 94.3175C66.1523 94.3175 66.0201 94.3028 65.9026 94.2734C64.933 94.0677 64.316 93.1128 64.5217 92.1433L65.7851 86.1349C65.9907 85.1653 66.9309 84.563 67.9152 84.754C68.8848 84.9597 69.5018 85.9146 69.2961 86.8841L68.0327 92.8925C67.8417 93.7445 67.1072 94.3175 66.2699 94.3175Z" fill="#001E46"/>
<path d="M79.0358 70.6953H30.4106C29.4117 70.6953 28.6184 69.8873 28.6184 68.9031C28.6184 67.9188 29.4117 67.1108 30.4106 67.1108H79.0358" fill="#001E46"/>
<path d="M75.7598 76.2776H74.3936C73.3947 76.2776 72.6014 75.4844 72.6014 74.4854C72.6014 73.4865 73.3947 72.6932 74.3936 72.6932H75.7598C76.7588 72.6932 77.552 73.4865 77.552 74.4854C77.552 75.4844 76.7588 76.2776 75.7598 76.2776Z" fill="#001E46"/>
<path d="M121.535 65.0982V88.9407C121.535 91.9082 119.082 94.3174 116.056 94.3174H89.0548C85.9845 94.3174 83.5753 91.9522 83.5753 88.9407V35.9965C83.5753 32.9703 86.0286 30.517 89.0548 30.517H116.056C119.023 30.517 121.535 33.0291 121.535 35.9965V59.3102C121.535 58.7813 117.951 59.3102 117.951 59.3102V35.9965C117.951 34.9829 117.055 34.1015 116.056 34.1015H89.0548C87.9971 34.1015 87.1597 34.9388 87.1597 35.9965V88.9407C87.1597 89.9837 87.953 90.7329 89.0548 90.7329H116.056C117.099 90.7329 117.951 89.925 117.951 88.9407V65.0982" fill="#001E46"/>
<path d="M109.724 39.7867H95.2687C94.4754 39.7867 93.7702 39.2579 93.5499 38.5087L91.8605 32.8088C91.5814 31.8539 92.1249 30.855 93.0651 30.5758C94.02 30.282 95.0189 30.8403 95.298 31.7805L96.6055 36.1876H108.402L109.797 31.7511C110.106 30.8109 111.105 30.282 112.045 30.5758C112.985 30.8696 113.514 31.8833 113.22 32.8235L111.428 38.5233C111.208 39.2872 110.503 39.7867 109.724 39.7867Z" fill="#001E46"/>
<path d="M103.187 88.7204H101.924C100.925 88.7204 100.131 87.9271 100.131 86.9281C100.131 85.9292 100.925 85.1359 101.924 85.1359H103.187C104.186 85.1359 104.979 85.9292 104.979 86.9281C104.979 87.9271 104.171 88.7204 103.187 88.7204Z" fill="#001E46"/>
</g>
</svg>
