<svg width="150" height="105" viewBox="0 0 150 105" fill="none" xmlns="http://www.w3.org/2000/svg">
<mask id="mask0_854_3773" style="mask-type:alpha" maskUnits="userSpaceOnUse" x="-1" y="-1" width="152" height="106">
<rect x="0.00012207" width="150" height="104.605" fill="#D9D9D9" stroke="black" stroke-width="0.6"/>
</mask>
<g mask="url(#mask0_854_3773)">
<path d="M113.459 46.377H83.7534C82.9874 46.377 82.3607 45.7503 82.3607 44.9843V15.2644C82.3607 14.8884 82.5139 14.5403 82.7646 14.2756C83.0153 14.011 83.3774 13.8718 83.7534 13.8718H94.8252C95.2987 13.8718 95.7444 14.1085 95.9951 14.5124C96.2457 14.9163 96.2875 15.4176 96.0925 15.8494C95.4519 17.256 95.062 19.2197 95.062 20.2224C95.062 22.1861 96.6635 23.7877 98.6272 23.7877C100.591 23.7877 102.192 22.1861 102.192 20.2224C102.192 19.2197 101.803 17.256 101.162 15.8494C100.967 15.4176 101.009 14.9163 101.259 14.5124C101.51 14.1085 101.956 13.8718 102.429 13.8718H113.501C113.877 13.8718 114.225 14.025 114.49 14.2756C114.754 14.5263 114.894 14.8884 114.894 15.2644V24.3587C116.245 23.9826 117.582 23.7737 118.459 23.7737C121.955 23.7737 124.81 26.6148 124.81 30.1244C124.81 33.6339 121.969 36.475 118.459 36.475C117.596 36.475 116.245 36.28 114.894 35.8901V44.9843C114.894 45.3603 114.741 45.7085 114.49 45.9731C114.239 46.2377 113.835 46.377 113.459 46.377ZM85.1461 43.5916H112.081V33.9125C112.081 33.439 112.317 32.9933 112.721 32.7426C113.125 32.4919 113.626 32.4501 114.058 32.6451C115.465 33.2858 117.428 33.6757 118.431 33.6757C120.395 33.6757 121.996 32.0741 121.996 30.1104C121.996 28.1468 120.395 26.5452 118.431 26.5452C117.428 26.5452 115.465 26.9351 114.058 27.5758C113.626 27.7707 113.125 27.729 112.721 27.4783C112.317 27.2276 112.081 26.7819 112.081 26.3084V16.6293H104.379C104.755 17.9802 104.964 19.3172 104.964 20.1945C104.964 23.6902 102.123 26.5452 98.6133 26.5452C95.1037 26.5452 92.2627 23.7041 92.2627 20.1945C92.2627 19.3311 92.4576 17.9802 92.8476 16.6293H85.1461V43.5916Z" fill="#001E46" stroke="#001E46" stroke-width="0.6"/>
<path d="M101.315 94.2294H90.7585C89.5747 94.2294 88.4745 93.6445 87.806 92.6696C87.1375 91.6948 86.9982 90.4414 87.4439 89.3411C87.8478 88.3245 87.9313 87.7256 87.9313 87.3914C87.9313 85.1492 86.1069 83.3247 83.8647 83.3247C81.6225 83.3247 79.7981 85.1492 79.7981 87.3914C79.7981 87.7395 79.8816 88.3663 80.2716 89.3551C80.7033 90.4553 80.564 91.7087 79.8955 92.6836C79.2271 93.6584 78.1268 94.2434 76.957 94.2434H66.4144C65.6484 94.2434 65.0217 93.6167 65.0217 92.8507V76.3892C65.0217 75.6232 65.6484 74.9965 66.4144 74.9965C67.1804 74.9965 67.8071 75.6232 67.8071 76.3892V91.4441H76.957C77.3191 91.4441 77.5141 91.2352 77.5976 91.1098C77.6672 90.9984 77.8204 90.7199 77.6812 90.3578C77.2494 89.2436 77.0266 88.2409 77.0266 87.3775C77.0266 83.6033 80.1044 80.5255 83.8786 80.5255C87.6528 80.5255 90.7306 83.6033 90.7306 87.3775C90.7306 88.2131 90.5078 89.2158 90.0482 90.3578C89.9089 90.706 90.0621 90.9984 90.1318 91.0959C90.2153 91.2213 90.4242 91.4441 90.7724 91.4441H99.9362V82.322C99.9362 81.1382 100.521 80.0241 101.51 79.3695C102.499 78.701 103.752 78.5757 104.852 79.0214C105.841 79.4252 106.454 79.5088 106.788 79.5088C109.03 79.5088 110.855 77.6844 110.855 75.4422C110.855 73.1999 109.03 71.3755 106.788 71.3755C106.468 71.3755 105.855 71.4591 104.811 71.8769C103.71 72.3086 102.471 72.1694 101.496 71.5009C100.521 70.8324 99.9362 69.7322 99.9362 68.5484V59.3288H78.7257C77.9597 59.3288 77.333 58.7021 77.333 57.9361C77.333 57.1702 77.9597 56.5435 78.7257 56.5435H101.301C102.067 56.5435 102.694 57.1702 102.694 57.9361V68.5345C102.694 68.9105 102.931 69.1194 103.042 69.189C103.167 69.2726 103.432 69.3979 103.766 69.2726C104.95 68.813 105.925 68.5902 106.76 68.5902C110.535 68.5902 113.612 71.668 113.612 75.4422C113.612 79.2163 110.535 82.2942 106.76 82.2942C105.897 82.2663 104.936 82.0713 103.794 81.6117C103.432 81.4725 103.153 81.6117 103.042 81.6814C102.917 81.7649 102.694 81.9599 102.694 82.322V92.8368C102.694 93.2128 102.541 93.561 102.29 93.8256C102.039 94.0902 101.677 94.2294 101.315 94.2294Z" fill="#001E46" stroke="#001E46" stroke-width="0.6"/>
<path d="M48.9502 83.0323C44.6468 83.0323 41.0119 79.3974 41.0119 75.0941C41.0119 74.342 41.2208 73.3114 41.4297 72.3087L41.4854 72.058C41.5968 71.5427 41.4576 70.9996 41.1233 70.5957C40.7891 70.1779 40.2877 69.9411 39.7446 69.9411H27.1408C26.7648 69.9411 26.4166 69.7879 26.152 69.5373C25.8874 69.2866 25.7481 68.9245 25.7481 68.5485V55.9447C25.7481 54.5659 26.3609 53.2847 27.4193 52.4212C28.4778 51.5577 29.8565 51.2096 31.2074 51.4881L31.4581 51.5299C32.238 51.6831 33.2129 51.892 33.6864 51.892C36.43 51.892 38.8393 49.4826 38.8393 46.739C38.8393 45.4299 38.2683 44.1208 37.2935 43.132C36.3047 42.1432 34.9955 41.5861 33.7003 41.5861C33.2268 41.5861 32.252 41.7811 31.472 41.9482L31.2214 42.0039C29.8844 42.2685 28.5056 41.9343 27.4333 41.0708C26.3609 40.1795 25.7481 38.8982 25.7481 37.5195V24.9157C25.7481 24.1497 26.3748 23.523 27.1408 23.523H39.7446C40.2738 23.523 40.7752 23.2863 41.1233 22.8685C41.4576 22.4507 41.5968 21.9214 41.4854 21.4062L41.4297 21.1694C41.2208 20.1667 41.0119 19.1361 41.0119 18.384C41.0119 14.0806 44.6468 10.4457 48.9502 10.4457C53.2536 10.4457 56.8885 14.0806 56.8885 18.384C56.8885 19.1361 56.6796 20.1667 56.4846 21.1555L56.4289 21.4201C56.3175 21.9354 56.4568 22.4785 56.791 22.8963C57.1253 23.3141 57.6266 23.5509 58.1698 23.5509H70.7735C71.5395 23.5509 72.1662 24.1776 72.1662 24.9436V37.5473C72.1662 38.9261 71.5534 40.2074 70.495 41.0708C69.4366 41.9343 68.0578 42.2825 66.7069 42.0039L66.4562 41.9482C65.6763 41.795 64.7014 41.5861 64.2279 41.5861C61.4844 41.5861 59.075 43.9955 59.075 46.739C59.075 49.4826 61.4844 51.892 64.2279 51.892C64.7014 51.892 65.6763 51.697 66.4702 51.5299L66.7069 51.4742C68.0439 51.1956 69.4226 51.5438 70.495 52.4073C71.5534 53.2707 72.1662 54.5659 72.1662 55.9307V68.5345C72.1662 68.9105 72.013 69.2587 71.7624 69.5233C71.5117 69.7879 71.1496 69.9272 70.7735 69.9272H58.1698C57.6406 69.9272 57.1392 70.164 56.791 70.5818C56.4568 70.9996 56.3175 71.5288 56.4289 72.0441L56.4846 72.3087C56.6796 73.2975 56.8885 74.3281 56.8885 75.0801C56.8885 79.3974 53.2536 83.0323 48.9502 83.0323ZM39.7446 67.1558C41.1233 67.1558 42.4046 67.7685 43.2681 68.827C44.1315 69.8854 44.4797 71.2642 44.2012 72.6151L44.1455 72.8658C43.9923 73.6457 43.7834 74.6205 43.7834 75.0941C43.7834 77.8376 46.1927 80.247 48.9363 80.247C51.6799 80.247 54.0892 77.8376 54.0892 75.0941C54.0892 74.6205 53.8942 73.6596 53.741 72.8797L53.6853 72.6151C53.4068 71.2781 53.755 69.8994 54.6184 68.827C55.4819 67.7685 56.7771 67.1558 58.1419 67.1558H69.353V55.9447C69.353 55.4155 69.1163 54.9141 68.6984 54.5659C68.2806 54.2317 67.7514 54.0924 67.2361 54.2038L66.9994 54.2456C65.9966 54.4545 64.9661 54.6634 64.2001 54.6634C59.8967 54.6634 56.2618 51.0285 56.2618 46.7251C56.2618 42.4217 59.8967 38.7868 64.2001 38.7868C64.9521 38.7868 65.9827 38.9957 66.9855 39.2046L67.2361 39.2603C67.7514 39.3718 68.2946 39.2325 68.6984 38.8982C69.1163 38.564 69.353 38.0626 69.353 37.5195V26.3084H58.1419C56.7632 26.3084 55.4819 25.6956 54.6184 24.6372C53.755 23.5787 53.4068 22.2 53.6853 20.8491L53.741 20.5845C53.8942 19.8046 54.0892 18.8436 54.0892 18.3701C54.0892 15.6265 51.6799 13.2172 48.9363 13.2172C46.1927 13.2172 43.7834 15.6265 43.7834 18.3701C43.7834 18.8436 43.9783 19.8185 44.1455 20.5984L44.2012 20.8491C44.4797 22.1861 44.1315 23.5787 43.2681 24.6372C42.4046 25.6956 41.1094 26.3084 39.7446 26.3084L28.5335 26.3223V37.5334C28.5335 38.0626 28.7702 38.564 29.188 38.9122C29.6059 39.2464 30.1351 39.3857 30.6504 39.2743L30.8871 39.2186C31.8899 39.0097 32.9204 38.8008 33.6725 38.8008C35.7058 38.8008 37.7391 39.6642 39.2432 41.1683C40.7473 42.6724 41.6108 44.7057 41.6108 46.739C41.6108 51.0424 37.9759 54.6773 33.6725 54.6773C32.9204 54.6773 31.8759 54.4684 30.8871 54.2595L30.6504 54.2038C30.1351 54.0924 29.5919 54.2317 29.188 54.5659C28.7702 54.9141 28.5335 55.4155 28.5335 55.9447V67.1558H39.7446Z" fill="#001E46" stroke="#001E46" stroke-width="0.6"/>
</g>
</svg>
