<svg width="150" height="105" viewBox="0 0 150 105" fill="none" xmlns="http://www.w3.org/2000/svg">
<mask id="mask0_854_3797" style="mask-type:alpha" maskUnits="userSpaceOnUse" x="0" y="0" width="150" height="105">
<rect width="150" height="104.605" fill="#D9D9D9"/>
</mask>
<g mask="url(#mask0_854_3797)">
<path d="M118.548 94.2435H30.9928C27.7822 94.2435 25.1645 91.6258 25.1645 88.4151V27.1237C25.1645 23.9131 27.7822 21.2954 30.9928 21.2954H118.548C121.758 21.2954 124.376 23.9131 124.376 27.1237V88.4151C124.362 91.6258 121.758 94.2435 118.548 94.2435ZM30.9928 24.2023C29.373 24.2023 28.057 25.5184 28.057 27.1237V88.4151C28.057 90.0349 29.373 91.351 30.9928 91.351H118.548C120.168 91.351 121.484 90.0349 121.484 88.4151V27.1237C121.484 25.504 120.168 24.1879 118.548 24.1879H30.9928V24.2023Z" fill="#001E46" stroke="#001E46" stroke-width="0.6"/>
<path d="M89.3483 22.756H86.4558V13.9919C86.4558 13.5869 86.1232 13.2543 85.7183 13.2543H63.8223C63.4173 13.2543 63.0847 13.5869 63.0847 13.9919V22.7416H60.1922V13.9919C60.1922 11.9816 61.8265 10.3618 63.8223 10.3618H85.7183C87.7285 10.3618 89.3483 11.9961 89.3483 13.9919V22.756Z" fill="#001E46" stroke="#001E46" stroke-width="0.6"/>
<path d="M79.89 72.3475H69.6507C68.0598 72.3475 66.7582 71.0459 66.7582 69.455V54.1394H82.7825V69.455C82.7825 71.0603 81.4809 72.3475 79.89 72.3475ZM69.6507 57.0319V69.455H79.89V57.0319H69.6507Z" fill="#001E46" stroke="#001E46" stroke-width="0.6"/>
<path d="M68.2044 65.7815H37.5587C30.718 65.7815 25.1645 60.228 25.1645 53.4017H28.057C28.057 58.6371 32.3233 62.9035 37.5587 62.9035H68.2044V65.7815Z" fill="#001E46" stroke="#001E46" stroke-width="0.6"/>
<path d="M111.982 65.7815H81.3362V62.889H111.982C117.217 62.889 121.484 58.6226 121.484 53.3873H124.376C124.362 60.228 118.808 65.7815 111.982 65.7815Z" fill="#001E46" stroke="#001E46" stroke-width="0.6"/>
</g>
</svg>
