<svg width="150" height="105" viewBox="0 0 150 105" fill="none" xmlns="http://www.w3.org/2000/svg">
<mask id="mask0_853_3722" style="mask-type:alpha" maskUnits="userSpaceOnUse" x="0" y="0" width="150" height="105">
<rect width="150" height="104.605" fill="#D9D9D9"/>
</mask>
<g mask="url(#mask0_853_3722)">
<path d="M117.276 82.2101H33.2176V32.0906C33.2176 29.0451 35.6933 26.5706 38.7404 26.5706H56.9935V29.499H38.7404C37.3048 29.499 36.1475 30.6557 36.1475 32.0906V79.2817H114.346V52.3697H117.276V82.2101Z" fill="#001E46" stroke="#001E46" stroke-width="0.6"/>
<path d="M116.031 94.3775H34.4629C30.4196 94.3775 27.1382 91.0977 27.1382 87.0565V79.2816H123.355V87.0565C123.355 91.083 120.074 94.3775 116.031 94.3775ZM30.0681 82.21V87.0565C30.0681 89.4724 32.0457 91.4491 34.4629 91.4491H116.031C118.448 91.4491 120.425 89.4724 120.425 87.0565V82.21H30.0681Z" fill="#001E46" stroke="#001E46" stroke-width="0.6"/>
<path d="M81.3262 85.358H71.1888V88.2864H81.3262V85.358Z" fill="#001E46" stroke="#001E46" stroke-width="0.6"/>
<path d="M83.3625 65.1521C82.9084 65.1521 82.4542 65.0642 82.0294 64.8885C80.7256 64.3468 79.8759 63.0729 79.8759 61.6673V49.778H73.2251V46.8496H82.8058V61.6673C82.8058 61.9894 83.0256 62.1358 83.1574 62.1798C83.2892 62.2383 83.5383 62.2823 83.7727 62.0626L98.9934 46.8496H115.826C118.374 46.8496 120.44 44.7851 120.44 42.2374V17.9024C120.44 15.3547 118.374 13.2902 115.826 13.2902H67.131C64.582 13.2902 62.5164 15.3547 62.5164 17.9024V36.1463H59.5865V17.9024C59.5865 13.7441 62.9706 10.3618 67.131 10.3618H115.811C119.971 10.3618 123.355 13.7441 123.355 17.9024V42.2228C123.355 46.3811 119.971 49.7634 115.811 49.7634H100.195L85.8382 64.1125C85.1644 64.8007 84.2708 65.1521 83.3625 65.1521Z" fill="#001E46" stroke="#001E46" stroke-width="0.6"/>
<path d="M78.7479 76.69H75.8181V73.4249C75.8181 69.1201 65.4609 65.9867 61.0515 65.9867C56.6567 65.9867 46.2996 69.1348 46.2996 73.4249V76.69H43.3697V73.4249C43.3697 66.1771 56.7885 63.0583 61.0515 63.0583C65.3145 63.0583 78.7479 66.1771 78.7479 73.4249V76.69Z" fill="#001E46" stroke="#001E46" stroke-width="0.6"/>
<path d="M61.0515 59.925C55.7777 59.925 51.4708 55.6495 51.4708 50.3931V48.2846C51.4708 43.0281 55.763 38.7527 61.0515 38.7527C66.3399 38.7527 70.6321 43.0281 70.6321 48.2846V50.3931C70.6321 55.6495 66.3252 59.925 61.0515 59.925ZM61.0515 41.6664C57.3891 41.6664 54.4006 44.6241 54.4006 48.27V50.3784C54.4006 54.0243 57.3891 56.9819 61.0515 56.9819C64.7138 56.9819 67.7023 54.0243 67.7023 50.3784V48.27C67.7023 44.6388 64.7138 41.6664 61.0515 41.6664Z" fill="#001E46" stroke="#001E46" stroke-width="0.6"/>
<path d="M107.695 24.5499H75.2467V27.4783H107.695V24.5499Z" fill="#001E46" stroke="#001E46" stroke-width="0.6"/>
<path d="M93.4998 32.6616H75.2467V35.59H93.4998V32.6616Z" fill="#001E46" stroke="#001E46" stroke-width="0.6"/>
</g>
</svg>
